<?xml version="1.0" encoding="UTF-8" standalone="no"?><!DOCTYPE svg PUBLIC "-//W3C//DTD SVG 1.1//EN" "http://www.w3.org/Graphics/SVG/1.1/DTD/svg11.dtd"><svg width="100%" height="100%" viewBox="0 0 2169 1223" version="1.1" xmlns="http://www.w3.org/2000/svg" xmlns:xlink="http://www.w3.org/1999/xlink" xml:space="preserve" xmlns:serif="http://www.serif.com/" style="fill-rule:evenodd;clip-rule:evenodd;stroke-linecap:round;stroke-linejoin:round;stroke-miterlimit:1.5;"><g><rect x="1.042" y="805.061" width="2166.67" height="138.667" style="fill:#dba16f;stroke:#000;stroke-width:2.08px;"/><g transform="matrix(78,0,0,78,1142.71,896.462)"></g><g transform="matrix(78,0,0,78,1168.69,896.462)"></g><g transform="matrix(78,0,0,78,2126.47,896.462)"></g><text x="41.685px" y="896.462px" style="font-family:'Arial-BoldMT', 'Arial', sans-serif;font-weight:700;font-size:78px;">Quantitative Intermediate V<tspan x="1047.31px 1090.69px " y="896.462px 896.462px ">er</tspan>iﬁcation Language (HeyVL)</text></g><g><g><rect x="1.042" y="1082.39" width="576.333" height="138.667" style="fill:#b7dc96;stroke:#000;stroke-width:2.08px;"/><g transform="matrix(78,0,0,78,529.272,1183.66)"></g><text x="48.056px" y="1183.66px" style="font-family:'ArialMT', 'Arial', sans-serif;font-size:78px;">VC Generator</text></g><g><rect x="716.093" y="1082.39" width="654.282" height="138.667" style="fill:#76a9cd;stroke:#000;stroke-width:2.08px;"/><g transform="matrix(0.993421,0,0,1,-11.4705,-5.68434e-14)"><g transform="matrix(78,0,0,78,1371.18,1171.44)"></g><text x="746.795px" y="1171.44px" style="font-family:'ArialMT', 'Arial', sans-serif;font-size:78px;">Real-valued Logic</text></g></g><path d="M577.375,1165.5l0.105,-28.166l84.499,0.314l0.149,-40.083l53.965,54.367l-54.367,53.965l0.148,-40.083l-84.499,-0.314Z" style="fill:#fff;stroke:#000;stroke-width:2.08px;"/><g><rect x="1513.43" y="1082.39" width="654.282" height="138.667" style="fill:#ebebeb;stroke:#000;stroke-width:2.08px;"/><g transform="matrix(0.993421,0,0,1,-6.22447,-5.68434e-14)"><g transform="matrix(78,0,0,78,2059.32,1171.44)"></g><text x="1653.32px" y="1171.44px" style="font-family:'ArialMT', 'Arial', sans-serif;font-size:78px;">SMT<tspan x="1816.56px 1838.23px " y="1171.44px 1171.44px "> S</tspan>olver</text></g></g><path d="M1374.71,1165.5l0.105,-28.166l84.499,0.314l0.149,-40.083l53.965,54.367l-54.367,53.965l0.149,-40.083l-84.5,-0.314Z" style="fill:#fff;stroke:#000;stroke-width:2.08px;"/></g><g><rect x="1.042" y="1.042" width="2166.67" height="665.353" style="fill:#ebebeb;stroke:#000;stroke-width:2.08px;"/><g transform="matrix(69.3333,0,0,69.3333,634.58,128.579)"></g><text x="44.976px" y="128.579px" style="font-family:'ArialMT', 'Arial', sans-serif;font-size:69.333px;">expected run-times</text><g transform="matrix(69.3333,0,0,69.3333,500.907,352.676)"></g><text x="142.527px" y="352.676px" style="font-family:'ArialMT', 'Arial', sans-serif;font-size:69.333px;">martingales</text><g transform="matrix(69.3333,0,0,69.3333,1264.89,128.579)"></g><text x="698.446px" y="128.579px" style="font-family:'ArialMT', 'Arial', sans-serif;font-size:69.333px;">partial correctness</text><g transform="matrix(69.3333,0,0,69.3333,2126.01,238.402)"></g><text x="1143.22px" y="238.402px" style="font-family:'ArialMT', 'Arial', sans-serif;font-size:69.333px;">expected resource consumption</text><g transform="matrix(69.3333,0,0,69.3333,1021.7,238.402)"></g><text x="42.945px" y="238.402px" style="font-family:'ArialMT', 'Arial', sans-serif;font-size:69.333px;">positive almost-sure termination</text><g transform="matrix(69.3333,0,0,69.3333,2111.52,352.676)"></g><text x="1387.11px" y="352.676px" style="font-family:'ArialMT', 'Arial', sans-serif;font-size:69.333px;">almost-sure termination</text><g transform="matrix(69.3333,0,0,69.3333,1333.51,573.896)"></g><text x="894.148px" y="573.896px" style="font-family:'ArialMT', 'Arial', sans-serif;font-size:69.333px;">Park induction</text><g transform="matrix(69.3333,0,0,69.3333,843.088,573.896)"></g><text x="45.213px" y="573.896px" style="font-family:'ArialMT', 'Arial', sans-serif;font-size:69.333px;">optional stopping theorem</text><g transform="matrix(69.3333,0,0,69.3333,1238.34,352.676)"></g><text x="664.169px" y="352.676px" style="font-family:'ArialMT', 'Arial', sans-serif;font-size:69.333px;">amortised analysis</text><g transform="matrix(69.3333,0,0,69.3333,996.227,467.764)"></g><text x="144.389px" y="467.764px" style="font-family:'ArialMT', 'Arial', sans-serif;font-size:69.333px;">conditional expected values</text><g transform="matrix(69.3333,0,0,69.3333,1857.78,137.093)"></g><text x="1522.49px" y="137.093px" style="font-family:'ArialMT', 'Arial', sans-serif;font-size:69.333px;">k-induction</text><g transform="matrix(69.3333,0,0,69.3333,2070.93,573.896)"></g><text x="1385.04px" y="573.896px" style="font-family:'ArialMT', 'Arial', sans-serif;font-size:69.333px;">probabilistic sensitivity</text><g transform="matrix(69.3333,0,0,69.3333,1750.85,463.286)"></g><text x="1242.19px" y="463.286px" style="font-family:'ArialMT', 'Arial', sans-serif;font-size:69.333px;">total correctness</text></g><path d="M1070.29,666.395l28.166,-0l0,84.5l40.084,-0l-54.167,54.166l-54.167,-54.166l40.084,-0l-0,-84.5Z" style="fill:#fff;stroke:#000;stroke-width:2.08px;"/><path d="M140.792,943.728l28.166,-0l0,84.5l40.084,-0l-54.167,54.167l-54.167,-54.167l40.084,-0l-0,-84.5Z" style="fill:#fff;stroke:#000;stroke-width:2.08px;"/></svg>