<?xml version="1.0" encoding="UTF-8" standalone="no"?>
<!DOCTYPE svg PUBLIC "-//W3C//DTD SVG 1.1//EN" "http://www.w3.org/Graphics/SVG/1.1/DTD/svg11.dtd">
<svg width="100%" height="100%" viewBox="0 0 1000 500" version="1.1" xmlns="http://www.w3.org/2000/svg" xmlns:xlink="http://www.w3.org/1999/xlink" xml:space="preserve" xmlns:serif="http://www.serif.com/" style="fill-rule:evenodd;clip-rule:evenodd;stroke-linejoin:round;stroke-miterlimit:2;">
    <g transform="matrix(0.759885,0,0,0.759885,18.6902,-311.05)">
        <g transform="matrix(400,0,0,400,200,869)">
            <path d="M0.702,-0.055L0.696,-0.034L0.685,-0.035C0.681,-0.035 0.678,-0.034 0.677,-0.032L0.667,-0.011L0.654,-0.002L0.65,0.003L0.632,0.001L0.611,0.011L0.61,0.011L0.583,0.003L0.528,0.005L0.512,0.003L0.507,-0.005C0.487,-0.001 0.476,0.001 0.473,0.001L0.455,-0L0.443,0.002L0.439,-0.008L0.433,-0.008L0.428,-0.007L0.411,0.002L0.315,0.003L0.301,0.01C0.29,0.003 0.282,-0.001 0.276,-0.001L0.271,-0L0.246,0.007L0.218,0.001L0.132,0.004C0.129,0.004 0.117,0 0.095,-0.008L0.1,-0.019L0.112,-0.047L0.114,-0.073L0.119,-0.097L0.119,-0.134L0.122,-0.148L0.12,-0.261L0.122,-0.29L0.121,-0.301L0.118,-0.312L0.138,-0.313C0.135,-0.321 0.132,-0.326 0.129,-0.33C0.126,-0.333 0.122,-0.337 0.115,-0.342L0.113,-0.35L0.115,-0.386L0.111,-0.448L0.115,-0.472L0.117,-0.482L0.107,-0.485L0.103,-0.495L0.101,-0.527L0.095,-0.537L0.094,-0.542L0.095,-0.554L0.099,-0.56L0.126,-0.553L0.118,-0.56C0.113,-0.564 0.111,-0.567 0.111,-0.57C0.111,-0.571 0.111,-0.574 0.113,-0.578L0.105,-0.581L0.095,-0.578C0.094,-0.594 0.093,-0.605 0.092,-0.61C0.091,-0.615 0.089,-0.618 0.086,-0.619L0.067,-0.627L0.072,-0.637C0.074,-0.64 0.079,-0.643 0.088,-0.646L0.097,-0.649C0.113,-0.656 0.125,-0.66 0.134,-0.66L0.135,-0.66C0.135,-0.66 0.136,-0.66 0.136,-0.659L0.208,-0.647L0.241,-0.644L0.26,-0.638C0.272,-0.643 0.28,-0.645 0.284,-0.645C0.286,-0.645 0.287,-0.645 0.288,-0.644L0.362,-0.636L0.427,-0.64L0.452,-0.633L0.467,-0.636L0.467,-0.642C0.489,-0.644 0.506,-0.647 0.516,-0.651C0.53,-0.656 0.539,-0.659 0.542,-0.659L0.552,-0.657C0.55,-0.65 0.548,-0.644 0.546,-0.641C0.543,-0.638 0.538,-0.635 0.53,-0.631C0.529,-0.625 0.528,-0.621 0.526,-0.619C0.525,-0.616 0.52,-0.613 0.512,-0.609C0.495,-0.601 0.481,-0.597 0.47,-0.597L0.465,-0.597L0.439,-0.599L0.417,-0.596L0.372,-0.601L0.362,-0.602C0.353,-0.608 0.344,-0.611 0.335,-0.611C0.328,-0.603 0.315,-0.599 0.297,-0.599L0.282,-0.6L0.28,-0.609L0.27,-0.606L0.256,-0.6L0.189,-0.606L0.178,-0.59L0.182,-0.586L0.182,-0.582L0.184,-0.556L0.18,-0.518L0.182,-0.504L0.183,-0.493L0.193,-0.49L0.26,-0.484C0.264,-0.484 0.271,-0.481 0.28,-0.474L0.295,-0.477C0.304,-0.48 0.311,-0.482 0.315,-0.482L0.316,-0.482L0.368,-0.479L0.399,-0.478L0.427,-0.478C0.433,-0.478 0.438,-0.479 0.442,-0.479C0.446,-0.48 0.45,-0.482 0.455,-0.485L0.492,-0.478L0.522,-0.485L0.56,-0.486L0.6,-0.491C0.605,-0.49 0.609,-0.487 0.614,-0.484L0.624,-0.49C0.631,-0.495 0.637,-0.498 0.642,-0.498L0.653,-0.497L0.664,-0.498L0.664,-0.483L0.651,-0.474L0.621,-0.448C0.618,-0.445 0.614,-0.444 0.611,-0.444L0.609,-0.444L0.576,-0.448L0.534,-0.447L0.511,-0.452L0.429,-0.447L0.414,-0.448C0.41,-0.455 0.406,-0.458 0.402,-0.458C0.399,-0.458 0.397,-0.458 0.396,-0.457L0.374,-0.448L0.31,-0.455L0.279,-0.444L0.257,-0.45L0.239,-0.439L0.185,-0.443L0.181,-0.436L0.183,-0.41L0.175,-0.384L0.179,-0.376L0.186,-0.367L0.179,-0.346C0.184,-0.337 0.187,-0.33 0.188,-0.326L0.186,-0.31L0.19,-0.265L0.19,-0.264C0.19,-0.26 0.186,-0.253 0.179,-0.244C0.188,-0.233 0.192,-0.225 0.192,-0.218C0.192,-0.216 0.191,-0.214 0.19,-0.211L0.177,-0.183L0.191,-0.158L0.197,-0.065L0.212,-0.062L0.278,-0.039L0.3,-0.042C0.305,-0.042 0.312,-0.039 0.322,-0.034C0.328,-0.04 0.333,-0.043 0.336,-0.043L0.338,-0.043L0.383,-0.034L0.41,-0.037L0.434,-0.032L0.492,-0.036L0.509,-0.033L0.537,-0.032L0.547,-0.029L0.544,-0.036L0.555,-0.038L0.601,-0.039L0.611,-0.043L0.668,-0.053C0.67,-0.054 0.673,-0.054 0.679,-0.056C0.685,-0.057 0.689,-0.058 0.69,-0.058C0.692,-0.058 0.696,-0.057 0.702,-0.055Z" style="fill-rule:nonzero;"/>
        </g>
        <g transform="matrix(400,0,0,400,488.867,869)">
            <path d="M0.424,0.058L0.421,0.061L0.413,0.059L0.4,0.085L0.404,0.094C0.408,0.1 0.41,0.105 0.41,0.109C0.41,0.113 0.404,0.122 0.392,0.135L0.379,0.128L0.358,0.113L0.33,0.097L0.32,0.089C0.314,0.087 0.306,0.081 0.295,0.072L0.287,0.065L0.287,0.061L0.275,0.049L0.254,0.024L0.247,0.017L0.236,-0L0.244,-0.005L0.244,-0.009C0.236,-0.011 0.229,-0.014 0.224,-0.019C0.213,-0.032 0.204,-0.05 0.198,-0.071L0.192,-0.093L0.178,-0.126L0.174,-0.136L0.177,-0.139L0.179,-0.149L0.174,-0.152L0.179,-0.158L0.171,-0.161L0.168,-0.178L0.155,-0.216L0.154,-0.25L0.148,-0.264L0.15,-0.282L0.147,-0.316L0.149,-0.34L0.147,-0.352L0.15,-0.373L0.155,-0.423L0.167,-0.441L0.166,-0.454C0.166,-0.459 0.167,-0.462 0.168,-0.465C0.17,-0.468 0.173,-0.471 0.177,-0.473L0.185,-0.503L0.201,-0.537L0.209,-0.567L0.216,-0.576L0.228,-0.602L0.236,-0.61L0.242,-0.631L0.262,-0.643L0.288,-0.672L0.311,-0.691L0.327,-0.715L0.361,-0.74L0.379,-0.757C0.386,-0.763 0.393,-0.766 0.4,-0.766C0.404,-0.766 0.408,-0.764 0.413,-0.761C0.412,-0.757 0.411,-0.756 0.411,-0.756L0.418,-0.733L0.413,-0.722L0.404,-0.704L0.391,-0.695L0.359,-0.69L0.341,-0.681L0.333,-0.672L0.314,-0.657L0.294,-0.633L0.265,-0.609L0.255,-0.585L0.222,-0.531L0.213,-0.498L0.204,-0.473L0.203,-0.459L0.192,-0.405L0.197,-0.37L0.198,-0.361L0.196,-0.35L0.191,-0.341L0.198,-0.305L0.196,-0.294L0.204,-0.262L0.202,-0.248L0.218,-0.208L0.219,-0.191L0.237,-0.159L0.24,-0.143L0.249,-0.125L0.251,-0.119L0.25,-0.114L0.254,-0.109L0.253,-0.095L0.255,-0.085L0.283,-0.063L0.303,-0.035L0.317,-0.018C0.313,-0.012 0.311,-0.007 0.311,-0.004C0.311,0.002 0.314,0.006 0.319,0.007L0.339,0.009L0.371,0.031C0.377,0.034 0.387,0.036 0.403,0.037L0.415,0.038C0.42,0.045 0.423,0.051 0.424,0.058Z" style="fill-rule:nonzero;"/>
        </g>
        <g transform="matrix(400,0,0,400,662.891,869)">
            <path d="M0.671,-0.039C0.664,-0.033 0.659,-0.028 0.656,-0.023C0.654,-0.019 0.652,-0.012 0.65,-0.003C0.64,0 0.632,0.004 0.626,0.008C0.623,0.015 0.62,0.018 0.618,0.019L0.605,0.015L0.595,0.014L0.57,-0.004L0.552,-0.016L0.534,-0.027L0.534,-0.031L0.53,-0.031L0.523,-0.039L0.512,-0.056L0.505,-0.063C0.51,-0.071 0.513,-0.077 0.513,-0.081C0.513,-0.083 0.513,-0.085 0.511,-0.088L0.507,-0.088C0.504,-0.088 0.495,-0.086 0.482,-0.081L0.47,-0.092C0.47,-0.1 0.469,-0.106 0.467,-0.109C0.464,-0.113 0.459,-0.115 0.452,-0.116L0.425,-0.154L0.431,-0.156C0.428,-0.163 0.423,-0.166 0.415,-0.166L0.394,-0.189L0.388,-0.199L0.362,-0.23L0.36,-0.245L0.352,-0.253L0.347,-0.243L0.34,-0.254L0.319,-0.277C0.318,-0.278 0.316,-0.281 0.314,-0.287L0.321,-0.291C0.321,-0.299 0.319,-0.304 0.314,-0.307C0.309,-0.305 0.306,-0.303 0.304,-0.303C0.303,-0.303 0.301,-0.304 0.297,-0.305L0.29,-0.297L0.276,-0.278L0.251,-0.245L0.227,-0.205L0.218,-0.199L0.21,-0.189C0.209,-0.179 0.205,-0.167 0.196,-0.156C0.187,-0.144 0.176,-0.133 0.163,-0.123C0.16,-0.111 0.157,-0.102 0.154,-0.096C0.151,-0.09 0.146,-0.082 0.138,-0.071L0.131,-0.062C0.125,-0.065 0.122,-0.067 0.12,-0.067C0.116,-0.067 0.112,-0.064 0.107,-0.058L0.115,-0.046L0.089,-0.015L0.043,0.01C0.038,0.007 0.033,0.006 0.028,0.006C0.027,0.006 0.024,0.007 0.017,0.008L0.007,-0.003L0.007,-0.008L0.074,-0.067C0.087,-0.078 0.094,-0.086 0.097,-0.092L0.103,-0.105L0.142,-0.146L0.146,-0.158L0.196,-0.233L0.214,-0.258C0.22,-0.262 0.223,-0.264 0.224,-0.266C0.226,-0.267 0.226,-0.269 0.226,-0.273L0.226,-0.276L0.233,-0.285C0.248,-0.305 0.256,-0.319 0.256,-0.328C0.256,-0.329 0.256,-0.331 0.255,-0.334C0.26,-0.34 0.262,-0.344 0.262,-0.346C0.262,-0.348 0.259,-0.352 0.254,-0.358L0.231,-0.378L0.216,-0.393C0.208,-0.404 0.202,-0.41 0.2,-0.413C0.197,-0.415 0.193,-0.418 0.186,-0.421L0.184,-0.435L0.175,-0.441L0.164,-0.453L0.148,-0.463L0.131,-0.496L0.093,-0.528L0.059,-0.57L0.045,-0.581L0.038,-0.587L0.042,-0.601L0.056,-0.615L0.062,-0.627L0.093,-0.644L0.104,-0.651C0.117,-0.644 0.126,-0.634 0.133,-0.621L0.134,-0.617L0.128,-0.615L0.132,-0.603C0.135,-0.601 0.139,-0.6 0.144,-0.6C0.158,-0.59 0.168,-0.581 0.174,-0.573C0.18,-0.565 0.184,-0.555 0.186,-0.544L0.178,-0.544L0.185,-0.528L0.198,-0.528L0.223,-0.489L0.237,-0.476L0.25,-0.451C0.242,-0.442 0.238,-0.436 0.238,-0.432L0.241,-0.424L0.249,-0.424C0.253,-0.424 0.258,-0.422 0.265,-0.417L0.269,-0.425L0.278,-0.416C0.282,-0.412 0.285,-0.408 0.288,-0.405C0.291,-0.402 0.293,-0.399 0.293,-0.398C0.294,-0.397 0.294,-0.393 0.295,-0.388C0.311,-0.396 0.322,-0.408 0.328,-0.422L0.341,-0.453L0.37,-0.493L0.386,-0.521L0.397,-0.54L0.406,-0.555L0.413,-0.558C0.417,-0.573 0.426,-0.589 0.439,-0.606C0.443,-0.611 0.448,-0.613 0.455,-0.614L0.468,-0.623C0.465,-0.628 0.464,-0.632 0.464,-0.635C0.464,-0.64 0.466,-0.642 0.47,-0.642L0.483,-0.644L0.525,-0.66C0.533,-0.66 0.537,-0.656 0.538,-0.647L0.528,-0.638L0.503,-0.605L0.488,-0.594L0.475,-0.574L0.466,-0.571L0.453,-0.565C0.457,-0.558 0.459,-0.553 0.459,-0.551C0.459,-0.545 0.451,-0.539 0.435,-0.531C0.431,-0.515 0.429,-0.506 0.427,-0.504L0.394,-0.46L0.382,-0.448L0.376,-0.439L0.361,-0.438L0.368,-0.419L0.346,-0.4L0.344,-0.391C0.341,-0.376 0.337,-0.365 0.334,-0.357L0.346,-0.344L0.369,-0.329L0.389,-0.302L0.405,-0.289L0.41,-0.269L0.419,-0.257L0.43,-0.252L0.442,-0.238L0.456,-0.224L0.461,-0.207L0.477,-0.202L0.471,-0.196L0.477,-0.183L0.492,-0.182L0.498,-0.171C0.503,-0.159 0.508,-0.151 0.513,-0.148L0.547,-0.127L0.559,-0.12C0.559,-0.118 0.559,-0.117 0.559,-0.116C0.559,-0.115 0.558,-0.114 0.558,-0.113C0.558,-0.106 0.561,-0.099 0.566,-0.091C0.571,-0.092 0.574,-0.093 0.576,-0.095C0.577,-0.097 0.578,-0.101 0.578,-0.107L0.625,-0.071L0.637,-0.069C0.647,-0.067 0.654,-0.066 0.658,-0.065C0.662,-0.064 0.664,-0.062 0.666,-0.059C0.667,-0.056 0.669,-0.049 0.671,-0.039Z" style="fill-rule:nonzero;"/>
        </g>
        <g transform="matrix(400,0,0,400,923.242,869)">
            <path d="M0.292,-0.301L0.289,-0.28L0.284,-0.23L0.272,-0.212L0.273,-0.199C0.273,-0.19 0.269,-0.184 0.262,-0.18L0.254,-0.15L0.238,-0.116L0.23,-0.086L0.223,-0.077L0.211,-0.051L0.203,-0.043L0.197,-0.022L0.177,-0.01L0.151,0.019L0.128,0.038L0.112,0.062L0.078,0.087L0.06,0.104C0.053,0.11 0.046,0.113 0.039,0.113C0.035,0.113 0.031,0.111 0.026,0.108C0.027,0.105 0.028,0.103 0.028,0.103L0.021,0.08L0.026,0.069L0.035,0.051L0.048,0.042L0.08,0.037L0.098,0.028L0.106,0.019L0.125,0.004L0.145,-0.02L0.174,-0.044L0.184,-0.068L0.217,-0.122L0.226,-0.155L0.235,-0.18L0.236,-0.194L0.247,-0.248L0.242,-0.283L0.241,-0.292L0.243,-0.303L0.248,-0.312L0.241,-0.348L0.243,-0.359L0.235,-0.391L0.237,-0.405L0.221,-0.445L0.22,-0.462L0.202,-0.494L0.199,-0.51L0.19,-0.528L0.188,-0.534L0.189,-0.539L0.185,-0.544L0.186,-0.558L0.184,-0.568L0.156,-0.59L0.136,-0.618L0.122,-0.635C0.126,-0.641 0.128,-0.646 0.128,-0.649C0.128,-0.655 0.125,-0.659 0.12,-0.66L0.1,-0.662L0.068,-0.684C0.062,-0.687 0.051,-0.689 0.036,-0.69L0.024,-0.691C0.019,-0.698 0.016,-0.705 0.015,-0.711L0.018,-0.714L0.026,-0.712L0.039,-0.738L0.035,-0.747C0.031,-0.753 0.029,-0.758 0.029,-0.762C0.029,-0.766 0.035,-0.775 0.047,-0.788L0.06,-0.781L0.081,-0.766L0.109,-0.75L0.119,-0.742C0.125,-0.74 0.133,-0.734 0.144,-0.725L0.152,-0.718L0.152,-0.714L0.164,-0.702L0.185,-0.677L0.192,-0.67L0.203,-0.653L0.195,-0.648L0.195,-0.644C0.203,-0.643 0.21,-0.639 0.215,-0.634C0.226,-0.621 0.235,-0.604 0.241,-0.582L0.247,-0.56L0.261,-0.527L0.265,-0.517L0.262,-0.514L0.26,-0.504L0.265,-0.501L0.26,-0.495L0.268,-0.492L0.271,-0.475L0.284,-0.437L0.285,-0.403L0.291,-0.389L0.289,-0.371L0.292,-0.337L0.29,-0.313L0.292,-0.301Z" style="fill-rule:nonzero;"/>
        </g>
    </g>
</svg>
