<?xml version="1.0" encoding="UTF-8" standalone="no"?>
<!DOCTYPE svg PUBLIC "-//W3C//DTD SVG 1.1//EN" "http://www.w3.org/Graphics/SVG/1.1/DTD/svg11.dtd">
<svg width="100%" height="100%" viewBox="0 0 200 100" version="1.1" xmlns="http://www.w3.org/2000/svg" xmlns:xlink="http://www.w3.org/1999/xlink" xml:space="preserve" xmlns:serif="http://www.serif.com/" style="fill-rule:evenodd;clip-rule:evenodd;stroke-linejoin:round;stroke-miterlimit:2;">
    <g transform="matrix(0.805814,0,0,0.805814,14.9089,-24.9659)">
        <g transform="matrix(0.822645,0,0,0.822645,18.3155,23.7198)">
            <g transform="matrix(75.3865,0,0,75.3865,6,117)">
                <path d="M0.438,-0.332C0.435,-0.279 0.436,-0.202 0.44,-0.102C0.44,-0.095 0.442,-0.086 0.447,-0.074C0.452,-0.062 0.454,-0.053 0.454,-0.048C0.454,-0.035 0.443,-0.023 0.42,-0.014C0.415,-0.012 0.409,-0.011 0.402,-0.011C0.38,-0.011 0.357,-0.017 0.332,-0.029C0.303,-0.043 0.288,-0.06 0.288,-0.079C0.288,-0.088 0.291,-0.099 0.298,-0.113C0.304,-0.127 0.31,-0.141 0.316,-0.154L0.316,-0.326L0.182,-0.298C0.182,-0.265 0.182,-0.219 0.183,-0.16C0.184,-0.101 0.184,-0.071 0.184,-0.07C0.184,-0.062 0.186,-0.05 0.191,-0.033C0.195,-0.016 0.197,-0.004 0.197,0.003C0.197,0.016 0.193,0.027 0.184,0.036C0.175,0.044 0.162,0.048 0.147,0.048C0.131,0.048 0.115,0.044 0.098,0.035C0.081,0.026 0.07,0.017 0.065,0.009C0.059,-0 0.056,-0.007 0.056,-0.011C0.056,-0.012 0.059,-0.019 0.064,-0.032C0.064,-0.061 0.064,-0.107 0.063,-0.172C0.062,-0.237 0.062,-0.278 0.062,-0.296C0.061,-0.298 0.053,-0.312 0.038,-0.339C0.029,-0.354 0.025,-0.369 0.028,-0.382C0.029,-0.389 0.033,-0.395 0.04,-0.4C0.047,-0.405 0.053,-0.409 0.06,-0.414C0.058,-0.573 0.059,-0.68 0.062,-0.736C0.056,-0.748 0.053,-0.758 0.053,-0.765C0.053,-0.78 0.063,-0.792 0.084,-0.802C0.093,-0.806 0.105,-0.808 0.121,-0.808C0.173,-0.808 0.205,-0.794 0.216,-0.766C0.218,-0.761 0.219,-0.756 0.219,-0.751C0.219,-0.742 0.213,-0.728 0.202,-0.71C0.19,-0.691 0.184,-0.676 0.184,-0.664C0.18,-0.557 0.179,-0.478 0.182,-0.426C0.247,-0.437 0.291,-0.446 0.312,-0.452C0.306,-0.533 0.307,-0.629 0.314,-0.738C0.308,-0.755 0.305,-0.768 0.305,-0.779C0.305,-0.799 0.317,-0.815 0.342,-0.828C0.347,-0.831 0.355,-0.832 0.365,-0.832C0.388,-0.832 0.411,-0.826 0.433,-0.815C0.458,-0.802 0.471,-0.785 0.472,-0.764C0.473,-0.755 0.467,-0.743 0.455,-0.729C0.442,-0.715 0.436,-0.703 0.436,-0.692C0.435,-0.596 0.435,-0.515 0.438,-0.45C0.449,-0.441 0.46,-0.429 0.471,-0.412C0.482,-0.395 0.487,-0.382 0.487,-0.371C0.487,-0.36 0.481,-0.352 0.47,-0.347C0.459,-0.342 0.448,-0.337 0.438,-0.332Z" style="fill-rule:nonzero;"/>
            </g>
            <g transform="matrix(75.3865,0,0,75.3865,46.0302,117)">
                <path d="M0.39,-0.105C0.385,-0.08 0.367,-0.053 0.336,-0.024C0.331,-0.017 0.313,-0.007 0.281,0.005C0.244,0.019 0.213,0.025 0.186,0.023C0.136,0.02 0.097,-0.009 0.068,-0.063C0.042,-0.113 0.029,-0.174 0.029,-0.247C0.029,-0.326 0.044,-0.395 0.073,-0.454C0.106,-0.519 0.149,-0.556 0.204,-0.564C0.215,-0.565 0.225,-0.566 0.235,-0.566C0.314,-0.566 0.358,-0.517 0.366,-0.42C0.37,-0.375 0.352,-0.327 0.313,-0.274C0.27,-0.216 0.216,-0.175 0.149,-0.152C0.156,-0.125 0.162,-0.108 0.166,-0.1C0.175,-0.083 0.188,-0.075 0.204,-0.075C0.219,-0.075 0.236,-0.081 0.253,-0.093C0.268,-0.103 0.278,-0.113 0.283,-0.122C0.286,-0.123 0.288,-0.131 0.291,-0.145C0.294,-0.158 0.301,-0.168 0.312,-0.174C0.316,-0.176 0.321,-0.177 0.326,-0.177C0.342,-0.177 0.358,-0.169 0.373,-0.154C0.388,-0.138 0.393,-0.122 0.39,-0.105ZM0.233,-0.457C0.206,-0.457 0.185,-0.438 0.168,-0.4C0.146,-0.349 0.137,-0.299 0.141,-0.25C0.172,-0.26 0.201,-0.283 0.228,-0.32C0.255,-0.357 0.268,-0.389 0.268,-0.418C0.268,-0.444 0.256,-0.457 0.233,-0.457Z" style="fill-rule:nonzero;"/>
            </g>
            <g transform="matrix(75.3865,0,0,75.3865,78.9741,117)">
                <path d="M0.468,-0.498C0.47,-0.485 0.467,-0.47 0.458,-0.455C0.443,-0.43 0.435,-0.416 0.434,-0.414C0.406,-0.347 0.363,-0.24 0.304,-0.092C0.277,-0.021 0.261,0.042 0.254,0.099C0.253,0.104 0.252,0.116 0.253,0.134C0.254,0.149 0.251,0.16 0.246,0.167C0.235,0.181 0.219,0.188 0.198,0.188C0.16,0.188 0.135,0.174 0.124,0.145C0.121,0.138 0.12,0.131 0.12,0.126C0.12,0.119 0.123,0.112 0.128,0.104C0.133,0.095 0.137,0.088 0.138,0.083L0.162,-0.042L0.018,-0.456C0.016,-0.461 0.011,-0.472 0.002,-0.489C-0.004,-0.501 -0.007,-0.511 -0.007,-0.52C-0.007,-0.525 -0.006,-0.529 -0.005,-0.534C0.002,-0.558 0.024,-0.57 0.063,-0.57C0.087,-0.57 0.106,-0.566 0.12,-0.558C0.137,-0.548 0.146,-0.53 0.149,-0.505C0.152,-0.464 0.155,-0.441 0.156,-0.436L0.222,-0.228L0.324,-0.486C0.325,-0.488 0.328,-0.503 0.333,-0.53C0.336,-0.547 0.343,-0.558 0.354,-0.564C0.361,-0.568 0.368,-0.57 0.377,-0.57C0.396,-0.57 0.416,-0.563 0.435,-0.549C0.454,-0.534 0.465,-0.517 0.468,-0.498Z" style="fill-rule:nonzero;"/>
            </g>
        </g>
        <g transform="matrix(0.829371,0.222891,-0.222891,0.829371,131.035,4.80539)">
            <g transform="matrix(75.3865,0,0,75.3865,6,117)">
                <path d="M0.174,-0.762C0.175,-0.757 0.176,-0.753 0.176,-0.748C0.176,-0.741 0.174,-0.732 0.169,-0.719C0.164,-0.706 0.162,-0.695 0.162,-0.686L0.162,-0.354C0.162,-0.344 0.165,-0.33 0.17,-0.313C0.174,-0.296 0.177,-0.283 0.177,-0.276C0.177,-0.263 0.172,-0.253 0.162,-0.246C0.151,-0.238 0.138,-0.234 0.122,-0.234C0.087,-0.234 0.061,-0.246 0.042,-0.27C0.036,-0.278 0.033,-0.287 0.033,-0.297C0.033,-0.3 0.034,-0.307 0.035,-0.316C0.036,-0.325 0.037,-0.332 0.036,-0.338C0.03,-0.421 0.027,-0.507 0.027,-0.596C0.027,-0.711 0.032,-0.775 0.042,-0.786C0.049,-0.795 0.066,-0.799 0.092,-0.799C0.14,-0.799 0.167,-0.787 0.174,-0.762ZM0.174,-0.132C0.177,-0.125 0.179,-0.117 0.179,-0.108C0.179,-0.102 0.178,-0.092 0.176,-0.079C0.173,-0.066 0.172,-0.055 0.172,-0.048C0.172,-0.049 0.173,-0.039 0.175,-0.018C0.176,-0.007 0.173,0.003 0.168,0.011C0.161,0.023 0.147,0.029 0.127,0.029C0.092,0.029 0.066,0.017 0.048,-0.006C0.043,-0.013 0.041,-0.023 0.041,-0.037C0.041,-0.042 0.042,-0.054 0.043,-0.073C0.044,-0.09 0.045,-0.103 0.044,-0.114C0.044,-0.116 0.043,-0.123 0.041,-0.135C0.039,-0.143 0.039,-0.15 0.042,-0.156C0.047,-0.169 0.062,-0.175 0.087,-0.175C0.132,-0.175 0.161,-0.161 0.174,-0.132Z" style="fill:rgb(61,61,61);fill-rule:nonzero;"/>
            </g>
        </g>
        <g transform="matrix(1,0,0,1,123.624,124.434)">
            <g transform="matrix(62.0163,0,0,62.0163,0,0)">
                <path d="M0.492,-0.684L0.33,-0.096C0.329,-0.093 0.329,-0.09 0.329,-0.087C0.329,-0.082 0.33,-0.074 0.332,-0.062C0.333,-0.05 0.334,-0.041 0.334,-0.034C0.334,-0.014 0.328,0.002 0.317,0.015C0.305,0.027 0.291,0.033 0.274,0.033C0.249,0.033 0.222,0.02 0.193,-0.007C0.164,-0.033 0.149,-0.058 0.149,-0.082C0.149,-0.086 0.151,-0.093 0.154,-0.104C0.157,-0.113 0.157,-0.12 0.156,-0.126L0.042,-0.696C0.041,-0.701 0.035,-0.708 0.022,-0.718C0.009,-0.728 0.002,-0.739 0.002,-0.75C0.002,-0.78 0.03,-0.795 0.087,-0.795C0.112,-0.795 0.134,-0.791 0.155,-0.783C0.175,-0.775 0.187,-0.764 0.192,-0.75C0.193,-0.746 0.194,-0.742 0.194,-0.738C0.194,-0.732 0.191,-0.723 0.186,-0.712C0.181,-0.701 0.179,-0.691 0.18,-0.684L0.252,-0.308L0.354,-0.708C0.355,-0.714 0.356,-0.721 0.356,-0.729L0.356,-0.755C0.356,-0.776 0.365,-0.792 0.384,-0.804C0.396,-0.811 0.411,-0.815 0.428,-0.815C0.455,-0.815 0.48,-0.808 0.503,-0.794C0.526,-0.779 0.538,-0.762 0.538,-0.743C0.538,-0.738 0.537,-0.732 0.534,-0.726C0.531,-0.719 0.524,-0.713 0.513,-0.706C0.501,-0.699 0.494,-0.691 0.492,-0.684Z" style="fill-rule:nonzero;"/>
            </g>
            <g transform="matrix(62.0163,0,0,62.0163,36.0935,0)">
                <path d="M0.422,-0.154C0.426,-0.146 0.428,-0.137 0.428,-0.127C0.428,-0.11 0.423,-0.094 0.413,-0.079C0.402,-0.064 0.39,-0.054 0.377,-0.049C0.363,-0.044 0.343,-0.041 0.318,-0.041C0.293,-0.041 0.274,-0.039 0.263,-0.036C0.252,-0.033 0.239,-0.022 0.224,-0.005C0.211,0.009 0.189,0.018 0.158,0.023C0.139,0.026 0.119,0.019 0.099,0.003C0.079,-0.013 0.065,-0.033 0.058,-0.056C0.057,-0.061 0.056,-0.065 0.056,-0.069C0.056,-0.078 0.061,-0.087 0.071,-0.098C0.08,-0.109 0.085,-0.118 0.084,-0.126L0.042,-0.732C0.042,-0.735 0.039,-0.741 0.032,-0.751C0.025,-0.76 0.021,-0.768 0.021,-0.775C0.021,-0.784 0.026,-0.793 0.036,-0.802C0.05,-0.815 0.07,-0.821 0.096,-0.821C0.118,-0.821 0.139,-0.816 0.16,-0.807C0.18,-0.798 0.193,-0.787 0.198,-0.774C0.201,-0.767 0.203,-0.76 0.203,-0.755C0.203,-0.749 0.2,-0.743 0.194,-0.737C0.188,-0.731 0.185,-0.725 0.186,-0.72L0.222,-0.168L0.282,-0.192C0.295,-0.198 0.308,-0.204 0.321,-0.21C0.334,-0.215 0.344,-0.218 0.353,-0.218C0.377,-0.218 0.4,-0.197 0.422,-0.154Z" style="fill-rule:nonzero;"/>
            </g>
        </g>
    </g>
</svg>
