<?xml version="1.0" encoding="UTF-8" standalone="no"?><!DOCTYPE svg PUBLIC "-//W3C//DTD SVG 1.1//EN" "http://www.w3.org/Graphics/SVG/1.1/DTD/svg11.dtd"><svg width="100%" height="100%" viewBox="0 0 115 257" version="1.1" xmlns="http://www.w3.org/2000/svg" xmlns:xlink="http://www.w3.org/1999/xlink" xml:space="preserve" xmlns:serif="http://www.serif.com/" style="fill-rule:evenodd;clip-rule:evenodd;stroke-linejoin:round;stroke-miterlimit:2;"><path id="path8735" d="M114.352,-0c-0.579,0.254 -1.149,0.511 -1.706,0.78c0.599,-0.253 1.183,-0.497 1.706,-0.78Zm-1.806,0.826c-12.526,5.221 -40.266,4.431 -37.795,18.182c13.67,5.377 20.599,-9.832 37.795,-18.182Zm-37.336,4.226c-16.051,7.73 -19.284,15.691 -16.594,23.756c14.384,-6.743 8.369,-10.828 16.593,-23.754l0.001,-0.002Zm-17.631,11.574c-16.271,11.271 -18.442,20.573 -14.087,28.956c14.613,-9.9 7.308,-13.342 14.087,-28.956Zm28.633,8.85c-7.347,1.818 -9.581,-1.699 -14.271,-1.322c-2.131,0.171 -4.759,1.153 -8.614,3.789c8.409,7.117 15.066,2.451 22.885,-2.468l-0,0.001Zm-13.011,11.64c-7.042,2.975 -10.208,0.394 -14.544,0.823c-2.602,0.257 -5.62,1.597 -10.147,5.872c10.465,6.349 16.965,0.061 24.691,-6.695l0,-0Zm-33.317,-4.504c-15.63,15.473 -16.217,26.071 -9.835,34.403c14.08,-13.652 5.43,-16.009 9.835,-34.403Zm21.038,19.386c-11.411,7.384 -14.719,-2.699 -25.729,12.106c12.677,4.928 18.579,-3.222 25.729,-12.106Zm-37.328,1.518c-13.767,20.19 -12.145,31.858 -3.418,39.593c12.463,-17.875 2.513,-18.597 3.418,-39.593Zm27.088,16.693c-10.881,10.472 -16.637,0.166 -25.507,18.649c14.871,2.687 19.592,-7.444 25.507,-18.649Zm-40.55,8.981c-10.298,25.123 -5.842,37.437 5.431,43.827c9.415,-22.306 -1.564,-20.798 -5.431,-43.827Zm33.297,11.897c-9.406,13.895 -18.046,4.012 -23.417,26.148c16.784,-0.514 19.576,-12.603 23.417,-26.148Zm-3.165,25.194c-6.406,17.508 -18.374,9.193 -18.214,34.502c17.956,-5.066 17.715,-18.867 18.214,-34.502Zm-39.086,-3.867c-4.35,29.854 3.755,41.931 17.626,45.791c4.155,-26.58 -7.267,-22.004 -17.626,-45.791Zm42.463,29.808c-1.841,20.633 -17.078,15.129 -9.627,42.245c17.814,-10.6 13.586,-25.321 9.627,-42.245Zm-43.07,7.058c3.917,33.291 16.098,43.926 32.094,44.079c-3.184,-29.721 -14.135,-21.529 -32.094,-44.079Zm53.542,18.383c4.354,22.601 -13.6,21.403 2.662,48.083c15.78,-16.778 6.751,-31.221 -2.662,-48.083Zm17.584,22.657c11.968,22.601 -7.502,27.161 18.444,50.228c11.317,-22.954 -2.965,-35.367 -18.444,-50.228Zm-61.406,-1.908c14.38,34.362 30.637,41.985 47.768,37.247c-12.501,-30.767 -21.683,-18.662 -47.768,-37.247Zm61.665,44.569c-9.851,-2.561 -20.036,0.314 -40.08,-6.379c26.441,31.835 46.195,34.652 62.862,24.055c-9.458,-11.631 -16.042,-15.923 -22.782,-17.676l-0,0Z" style="fill:#2e8555;fill-rule:nonzero;"/></svg>