<?xml version="1.0" encoding="UTF-8" standalone="no"?>
<!DOCTYPE svg PUBLIC "-//W3C//DTD SVG 1.1//EN" "http://www.w3.org/Graphics/SVG/1.1/DTD/svg11.dtd">
<svg width="100%" height="100%" viewBox="0 0 512 512" version="1.1" xmlns="http://www.w3.org/2000/svg" xmlns:xlink="http://www.w3.org/1999/xlink" xml:space="preserve" xmlns:serif="http://www.serif.com/" style="fill-rule:evenodd;clip-rule:evenodd;stroke-linejoin:round;stroke-miterlimit:2;">
    <g id="path8735" transform="matrix(1.73849,0,0,1.73849,156.6,33.2946)">
        <path d="M114.352,-0C113.773,0.254 113.203,0.511 112.646,0.78C113.245,0.527 113.829,0.283 114.352,0ZM112.546,0.826C100.02,6.047 72.28,5.257 74.751,19.008C88.421,24.385 95.35,9.176 112.546,0.826ZM75.21,5.052C59.159,12.782 55.926,20.743 58.616,28.808C73,22.065 66.985,17.98 75.209,5.054L75.21,5.052ZM57.579,16.626C41.308,27.897 39.137,37.199 43.492,45.582C58.105,35.682 50.8,32.24 57.579,16.626ZM86.212,25.476C78.865,27.294 76.631,23.777 71.941,24.154C69.81,24.325 67.182,25.307 63.327,27.943C71.736,35.06 78.393,30.394 86.212,25.475L86.212,25.476ZM73.201,37.116C66.159,40.091 62.993,37.51 58.657,37.939C56.055,38.196 53.037,39.536 48.51,43.811C58.975,50.16 65.475,43.872 73.201,37.116ZM39.884,32.612C24.254,48.085 23.667,58.683 30.049,67.015C44.129,53.363 35.479,51.006 39.884,32.612ZM60.922,51.998C49.511,59.382 46.203,49.299 35.193,64.104C47.87,69.032 53.772,60.882 60.922,51.998ZM23.594,53.516C9.827,73.706 11.449,85.374 20.176,93.109C32.639,75.234 22.689,74.512 23.594,53.516ZM50.682,70.209C39.801,80.681 34.045,70.375 25.175,88.858C40.046,91.545 44.767,81.414 50.682,70.209ZM10.132,79.19C-0.166,104.313 4.29,116.627 15.563,123.017C24.978,100.711 13.999,102.219 10.132,79.19ZM43.429,91.087C34.023,104.982 25.383,95.099 20.012,117.235C36.796,116.721 39.588,104.632 43.429,91.087ZM40.264,116.281C33.858,133.789 21.89,125.474 22.05,150.783C40.006,145.717 39.765,131.916 40.264,116.281ZM1.178,112.414C-3.172,142.268 4.933,154.345 18.804,158.205C22.959,131.625 11.537,136.201 1.178,112.414ZM43.641,142.222C41.8,162.855 26.563,157.351 34.014,184.467C51.828,173.867 47.6,159.146 43.641,142.222ZM0.571,149.28C4.488,182.571 16.669,193.206 32.665,193.359C29.481,163.638 18.53,171.83 0.571,149.28ZM54.113,167.663C58.467,190.264 40.513,189.066 56.775,215.746C72.555,198.968 63.526,184.525 54.113,167.663ZM71.697,190.32C83.665,212.921 64.195,217.481 90.141,240.548C101.458,217.594 87.176,205.181 71.697,190.32ZM10.291,188.412C24.671,222.774 40.928,230.397 58.059,225.659C45.558,194.892 36.376,206.997 10.291,188.412ZM71.956,232.981C62.105,230.42 51.92,233.295 31.876,226.602C58.317,258.437 78.071,261.254 94.738,250.657C85.28,239.026 78.696,234.734 71.956,232.981Z" style="fill:rgb(46,133,85);fill-rule:nonzero;"/>
    </g>
</svg>
