<?xml version="1.0" encoding="UTF-8" standalone="no"?>
<!DOCTYPE svg PUBLIC "-//W3C//DTD SVG 1.1//EN" "http://www.w3.org/Graphics/SVG/1.1/DTD/svg11.dtd">
<svg width="100%" height="100%" viewBox="0 0 205 100" version="1.1" xmlns="http://www.w3.org/2000/svg" xmlns:xlink="http://www.w3.org/1999/xlink" xml:space="preserve" xmlns:serif="http://www.serif.com/" style="fill-rule:evenodd;clip-rule:evenodd;stroke-linejoin:round;stroke-miterlimit:2;">
    <path d="M205,10C205,4.481 200.519,0 195,0L10,0C4.481,0 0,4.481 0,10L0,90C0,95.519 4.481,100 10,100L195,100C200.519,100 205,95.519 205,90L205,10Z" style="fill:white;"/>
    <g id="right" transform="matrix(1,0,0,1,-0.00832125,4.3544)">
        <g id="DTU" transform="matrix(0.0848873,0,0,0.0848873,123.943,0.627094)">
            <g transform="matrix(1,0,0,1,301.053,0)">
                <path d="M64.333,29.208L86.256,29.208C95.93,29.208 101.691,30.784 106.186,36.147C113.081,44.415 113.689,61.135 113.689,94.822L113.689,153.566C113.689,187.265 113.081,203.96 106.186,212.241C101.691,217.603 95.93,219.167 86.256,219.167L64.333,219.167L64.333,29.208ZM30.126,248.163L92.258,248.163C116.392,248.163 131.112,242.68 140.038,231.126C153.213,215.349 153.631,189.893 153.631,150.844L153.631,97.544C153.631,58.507 153.213,33.038 140.038,17.261C131.112,5.708 116.392,0.218 92.258,0.218L30.126,0.218C28.271,0.218 27.119,0.782 26.309,1.599C25.479,2.428 24.922,3.555 24.922,5.436L24.922,242.971C24.922,244.826 25.479,245.972 26.309,246.789C27.119,247.611 28.271,248.163 30.126,248.163Z" style="fill:rgb(191,47,56);fill-rule:nonzero;"/>
            </g>
            <g transform="matrix(1,0,0,1,301.053,0)">
                <path d="M377.771,251.296C402.183,251.296 417.915,244.763 427.595,233.519C438.958,220.313 441.757,204.567 441.757,180.852L441.757,5.436C441.757,3.555 441.187,2.428 440.352,1.599C439.56,0.782 438.409,0.218 436.56,0.218L407.507,0.218C405.652,0.218 404.506,0.782 403.689,1.599C402.879,2.428 402.303,3.555 402.303,5.436L402.303,180.789C402.303,199.091 400.929,209.974 394.971,216.508C390.939,220.927 385.248,223.098 377.239,223.098C370.009,223.098 364.488,221.085 360.297,216.47C354.681,210.272 352.954,199.756 352.954,180.789L352.954,5.436C352.954,3.555 352.403,2.428 351.574,1.599C350.75,0.782 349.617,0.218 347.744,0.218L318.722,0.218C316.841,0.218 315.715,0.782 314.885,1.599C314.056,2.428 313.524,3.555 313.524,5.436L313.524,180.852C313.524,206.384 316.988,222.402 327.136,233.544C337.677,245.149 353.605,251.296 377.771,251.296Z" style="fill:rgb(191,47,56);fill-rule:nonzero;"/>
            </g>
            <g transform="matrix(1,0,0,1,301.053,0)">
                <path d="M174.795,31.557L212.109,31.557L212.109,242.971C212.109,244.826 212.641,245.972 213.47,246.789C214.293,247.611 215.427,248.163 217.294,248.163L249.057,248.163C250.924,248.163 252.057,247.611 252.874,246.789C253.709,245.972 254.254,244.826 254.254,242.971L254.254,31.557L291.562,31.557C293.423,31.557 294.557,31.006 295.406,30.183C296.209,29.366 296.773,28.22 296.773,26.365L296.773,5.436C296.773,3.555 296.209,2.428 295.406,1.599C294.557,0.782 293.423,0.218 291.562,0.218L174.795,0.218C172.921,0.218 171.788,0.782 170.958,1.599C170.129,2.428 169.572,3.555 169.572,5.436L169.572,26.365C169.572,28.22 170.129,29.366 170.958,30.183C171.788,31.006 172.921,31.557 174.795,31.557Z" style="fill:rgb(191,47,56);fill-rule:nonzero;"/>
            </g>
            <g transform="matrix(1,0,0,1,301.053,0)">
                <path d="M368.454,424.522L468.058,372.246L368.454,319.934C239.449,370.126 228.578,370.126 99.598,319.934L0,372.246L99.598,424.522C228.578,374.355 239.449,374.355 368.454,424.522Z" style="fill:rgb(191,47,56);fill-rule:nonzero;"/>
            </g>
            <g transform="matrix(1,0,0,1,301.053,0)">
                <path d="M99.598,449.187L0,501.486L99.598,553.761C228.578,503.594 239.449,503.594 368.454,553.761L468.058,501.486L368.454,449.187C239.449,499.365 228.578,499.365 99.598,449.187Z" style="fill:rgb(191,47,56);fill-rule:nonzero;"/>
            </g>
            <g transform="matrix(1,0,0,1,301.053,0)">
                <path d="M99.598,578.439L0,630.713L99.598,683C228.578,632.834 239.449,632.834 368.454,683L468.058,630.713L368.454,578.439C239.449,628.605 228.578,628.605 99.598,578.439Z" style="fill:rgb(191,47,56);fill-rule:nonzero;"/>
            </g>
        </g>
        <g id="UCL" transform="matrix(0.201352,0,0,0.201352,139.089,69.1102)">
            <path id="path22" d="M0,0L0,88.119L108.997,88.118C108.156,87.523 107.374,86.893 106.676,86.225C100.451,80.206 100.364,73.215 100.186,66.664L100.186,29.488L120.101,29.488L120.101,68.524C120.101,71.18 120.191,73.923 122.413,76.046C124.012,77.73 126.414,78.348 128.724,78.348C131.836,78.348 133.882,77.195 135.038,76.136C137.348,73.923 137.436,71.18 137.436,68.524L137.436,29.488L157.439,29.488L157.439,62.77C157.439,69.937 157.439,79.233 150.061,86.225C149.356,86.886 148.578,87.516 147.738,88.118L177.56,88.118C168.781,81.82 164.656,71.295 164.656,61.087C164.656,44.269 175.948,27.185 197.194,27.185C206.706,27.185 215.773,30.551 222.354,37.279C225.022,40.022 226.267,42.146 227.598,44.623L210.976,52.857C209.373,49.137 206.351,42.5 197.994,42.5C193.638,42.5 190.882,44.536 189.548,45.864C184.836,50.376 184.836,57.458 184.836,59.94C184.836,69.231 188.306,77.996 198.084,77.996C207.331,77.996 210.087,69.85 210.798,67.727L227.688,75.87C226.087,78.879 224.577,81.712 221.557,84.72C220.258,85.991 218.854,87.119 217.37,88.118L235.634,88.118L235.634,29.399L255.457,29.399L255.457,75.55L281.182,75.55L281.182,88.118L300,88.109L300,-0L0,-0" style="fill:rgb(35,31,32);fill-rule:nonzero;"/>
            <path id="path24" d="M90.102,43.514C90.063,43.506 79.374,41.209 79.374,41.209C79.374,41.209 68.67,43.509 68.649,43.514C68.591,43.526 68.611,43.575 68.611,43.575L68.759,44.124L68.79,44.123L68.786,44.124C68.786,44.124 68.951,44.103 69.048,44.256L69.208,45.138C69.208,45.138 69.212,45.2 69.275,45.2L89.477,45.2C89.531,45.2 89.536,45.154 89.536,45.154L89.697,44.272C89.789,44.1 89.968,44.124 89.968,44.124L89.964,44.123L89.991,44.124L90.14,43.575C90.14,43.575 90.161,43.526 90.102,43.514" style="fill:white;fill-rule:nonzero;"/>
            <path id="path26" d="M88.98,45.483C88.992,45.483 89.003,45.474 89.003,45.459L89.003,45.185C89.003,45.171 88.992,45.183 88.98,45.183L87.35,45.183C87.338,45.183 87.325,45.171 87.325,45.185L87.325,45.459C87.325,45.474 87.338,45.483 87.35,45.483L87.419,45.484C87.452,45.484 87.454,45.517 87.454,45.549C87.454,45.59 87.472,45.801 87.62,45.929C87.641,45.948 87.635,46 87.589,46L87.539,46C87.502,46 87.5,46.025 87.512,46.045C87.525,46.069 87.529,46.142 87.529,46.175L87.529,46.294C87.529,46.316 87.531,46.333 87.552,46.333L87.577,46.333C87.577,46.333 87.593,46.331 87.593,46.351L87.593,52.368C87.575,52.387 87.512,52.451 87.506,52.456C87.502,52.461 87.496,52.468 87.496,52.478L87.496,52.579C87.496,52.587 87.494,52.597 87.488,52.601C87.484,52.606 87.475,52.608 87.466,52.608L87.391,52.608C87.377,52.608 87.365,52.62 87.365,52.633L87.365,52.806L88.962,52.806L88.962,52.633C88.962,52.62 88.951,52.608 88.939,52.608L88.864,52.608C88.855,52.608 88.847,52.606 88.841,52.601C88.837,52.597 88.834,52.587 88.834,52.579L88.834,52.478C88.834,52.47 88.832,52.464 88.824,52.456C88.814,52.448 88.762,52.395 88.737,52.368L88.737,46.351C88.737,46.331 88.753,46.333 88.753,46.333L88.776,46.333C88.796,46.333 88.8,46.316 88.8,46.294L88.8,46.175C88.8,46.142 88.806,46.069 88.818,46.045C88.832,46.025 88.828,46 88.789,46L88.741,46C88.695,46 88.689,45.948 88.709,45.929C88.859,45.807 88.874,45.595 88.874,45.553C88.874,45.517 88.872,45.484 88.913,45.484L88.98,45.483" style="fill:white;fill-rule:nonzero;"/>
            <path id="path28" d="M85.466,45.483C85.477,45.483 85.489,45.474 85.489,45.459L85.489,45.185C85.489,45.171 85.477,45.183 85.466,45.183L83.833,45.183C83.821,45.183 83.811,45.171 83.811,45.185L83.811,45.459C83.811,45.474 83.821,45.483 83.833,45.483L83.904,45.484C83.936,45.484 83.938,45.517 83.938,45.549C83.938,45.59 83.957,45.801 84.104,45.929C84.124,45.948 84.116,46 84.074,46L84.025,46C83.986,46 83.982,46.025 83.993,46.045C84.009,46.069 84.011,46.142 84.011,46.175L84.011,46.294C84.011,46.316 84.015,46.333 84.036,46.333L84.059,46.333C84.059,46.333 84.076,46.331 84.076,46.351C84.076,46.366 84.078,46.374 84.078,46.374L84.078,52.368C84.059,52.387 83.993,52.451 83.989,52.456C83.984,52.461 83.98,52.468 83.98,52.478L83.98,52.579C83.98,52.587 83.98,52.597 83.972,52.601C83.969,52.606 83.961,52.608 83.951,52.608L83.874,52.608C83.863,52.608 83.853,52.62 83.853,52.633L83.853,52.806L85.446,52.806L85.446,52.633C85.446,52.62 85.434,52.608 85.424,52.608L85.348,52.608C85.339,52.608 85.329,52.606 85.325,52.601C85.319,52.597 85.317,52.587 85.317,52.579L85.317,52.478C85.317,52.47 85.315,52.464 85.307,52.456C85.3,52.448 85.248,52.395 85.22,52.368L85.22,46.351C85.22,46.331 85.238,46.333 85.238,46.333L85.26,46.333C85.281,46.333 85.282,46.316 85.282,46.294L85.282,46.175C85.282,46.142 85.29,46.069 85.303,46.045C85.313,46.025 85.309,46 85.273,46L85.224,46C85.178,46 85.173,45.948 85.194,45.929C85.344,45.807 85.359,45.595 85.359,45.553C85.359,45.517 85.357,45.484 85.396,45.484L85.466,45.483" style="fill:white;fill-rule:nonzero;"/>
            <path id="path30" d="M81.949,45.483C81.963,45.483 81.971,45.474 81.971,45.459L81.971,45.185C81.971,45.171 81.963,45.183 81.949,45.183L80.318,45.183C80.304,45.183 80.294,45.171 80.294,45.185L80.294,45.459C80.294,45.474 80.304,45.483 80.318,45.483L80.389,45.484C80.419,45.484 80.421,45.517 80.421,45.549C80.421,45.59 80.441,45.801 80.589,45.929C80.609,45.948 80.601,46 80.558,46L80.508,46C80.469,46 80.467,46.025 80.479,46.045C80.492,46.069 80.496,46.142 80.496,46.175L80.496,46.294C80.496,46.316 80.498,46.333 80.518,46.333L80.544,46.333C80.544,46.333 80.562,46.331 80.562,46.351L80.562,52.368C80.544,52.387 80.479,52.451 80.473,52.456C80.467,52.461 80.463,52.468 80.463,52.478L80.463,52.579C80.463,52.587 80.461,52.597 80.458,52.601C80.452,52.606 80.443,52.608 80.435,52.608L80.36,52.608C80.348,52.608 80.336,52.62 80.336,52.633L80.336,52.806L81.93,52.806L81.93,52.633C81.93,52.62 81.919,52.608 81.907,52.608L81.832,52.608C81.822,52.608 81.812,52.606 81.808,52.601C81.805,52.597 81.801,52.587 81.801,52.579L81.801,52.478C81.801,52.47 81.799,52.464 81.793,52.456C81.784,52.448 81.733,52.395 81.705,52.368L81.705,46.351C81.705,46.331 81.722,46.333 81.722,46.333L81.741,46.333C81.767,46.333 81.768,46.316 81.768,46.294L81.768,46.175C81.768,46.142 81.774,46.069 81.787,46.045C81.797,46.025 81.797,46 81.759,46L81.709,46C81.662,46 81.656,45.948 81.68,45.929C81.828,45.807 81.842,45.595 81.842,45.553C81.842,45.517 81.842,45.484 81.88,45.484L81.949,45.483" style="fill:white;fill-rule:nonzero;"/>
            <path id="path32" d="M78.433,45.483C78.446,45.483 78.456,45.474 78.456,45.459L78.456,45.185C78.456,45.171 78.446,45.183 78.433,45.183L76.801,45.183C76.788,45.183 76.78,45.171 76.78,45.185L76.78,45.459C76.78,45.474 76.788,45.483 76.801,45.483L76.871,45.484C76.903,45.484 76.905,45.517 76.905,45.549C76.905,45.59 76.924,45.801 77.073,45.929C77.094,45.948 77.084,46 77.041,46L76.992,46C76.954,46 76.952,46.025 76.963,46.045C76.976,46.069 76.98,46.142 76.98,46.175L76.98,46.294C76.98,46.316 76.982,46.333 77.005,46.333L77.029,46.333C77.029,46.333 77.045,46.331 77.045,46.351L77.045,52.368C77.029,52.387 76.963,52.451 76.958,52.456C76.954,52.461 76.95,52.468 76.95,52.478L76.95,52.579C76.95,52.587 76.948,52.597 76.942,52.601C76.936,52.606 76.926,52.608 76.918,52.608L76.843,52.608C76.83,52.608 76.821,52.62 76.821,52.633L76.821,52.806L78.414,52.806L78.414,52.633C78.414,52.62 78.404,52.608 78.391,52.608L78.315,52.608C78.306,52.608 78.298,52.606 78.292,52.601C78.288,52.597 78.286,52.587 78.286,52.579L78.286,52.478C78.286,52.47 78.284,52.464 78.277,52.456C78.268,52.448 78.215,52.395 78.191,52.368L78.191,46.374C78.191,46.374 78.189,46.366 78.189,46.351C78.189,46.331 78.206,46.333 78.206,46.333L78.229,46.333C78.248,46.333 78.252,46.316 78.252,46.294L78.252,46.175C78.252,46.142 78.258,46.069 78.272,46.045C78.282,46.025 78.279,46 78.242,46L78.194,46C78.146,46 78.14,45.948 78.161,45.929C78.312,45.807 78.327,45.595 78.327,45.553C78.327,45.517 78.325,45.484 78.363,45.484L78.433,45.483" style="fill:white;fill-rule:nonzero;"/>
            <path id="path34" d="M74.917,45.483C74.93,45.483 74.94,45.474 74.94,45.459L74.94,45.185C74.94,45.171 74.93,45.183 74.917,45.183L73.287,45.183C73.273,45.183 73.263,45.171 73.263,45.185L73.263,45.459C73.263,45.474 73.273,45.483 73.287,45.483L73.354,45.484C73.389,45.484 73.391,45.517 73.391,45.549C73.391,45.59 73.41,45.801 73.558,45.929C73.578,45.948 73.57,46 73.526,46L73.475,46C73.437,46 73.435,46.025 73.447,46.045C73.461,46.069 73.464,46.142 73.464,46.175L73.464,46.294C73.464,46.316 73.466,46.333 73.489,46.333L73.512,46.333C73.512,46.333 73.53,46.331 73.53,46.351L73.53,52.368C73.512,52.387 73.447,52.451 73.443,52.456C73.437,52.461 73.433,52.468 73.433,52.478L73.433,52.579C73.433,52.587 73.431,52.597 73.425,52.601C73.422,52.606 73.412,52.608 73.402,52.608L73.329,52.608C73.316,52.608 73.304,52.62 73.304,52.633L73.304,52.806L74.898,52.806L74.898,52.633C74.898,52.62 74.888,52.608 74.876,52.608L74.799,52.608C74.791,52.608 74.783,52.606 74.778,52.601C74.773,52.597 74.771,52.587 74.771,52.579L74.771,52.478C74.771,52.47 74.769,52.464 74.761,52.456C74.753,52.448 74.699,52.395 74.672,52.368L74.672,46.351C74.672,46.331 74.69,46.333 74.69,46.333L74.71,46.333C74.734,46.333 74.736,46.316 74.736,46.294L74.736,46.175C74.736,46.142 74.741,46.069 74.755,46.045C74.769,46.025 74.765,46 74.726,46L74.676,46C74.629,46 74.624,45.948 74.645,45.929C74.795,45.807 74.811,45.595 74.811,45.553C74.811,45.517 74.809,45.484 74.847,45.484L74.917,45.483" style="fill:white;fill-rule:nonzero;"/>
            <path id="path36" d="M71.401,45.483C71.414,45.483 71.425,45.474 71.425,45.459L71.425,45.185C71.425,45.171 71.414,45.183 71.401,45.183L69.77,45.183C69.757,45.183 69.747,45.171 69.747,45.185L69.747,45.459C69.747,45.474 69.757,45.483 69.77,45.483L69.84,45.484C69.873,45.484 69.875,45.517 69.875,45.549C69.875,45.59 69.893,45.801 70.042,45.929C70.061,45.948 70.053,46 70.011,46L69.96,46C69.923,46 69.921,46.025 69.932,46.045C69.946,46.069 69.948,46.142 69.948,46.175L69.948,46.294C69.948,46.316 69.95,46.333 69.972,46.333L69.996,46.333C69.996,46.333 70.013,46.331 70.013,46.351L70.013,52.368C69.996,52.387 69.932,52.451 69.927,52.456C69.921,52.461 69.917,52.468 69.917,52.478L69.917,52.579C69.917,52.587 69.915,52.597 69.911,52.601C69.905,52.606 69.895,52.608 69.888,52.608L69.813,52.608C69.8,52.608 69.788,52.62 69.788,52.633L69.788,52.806L71.383,52.806L71.383,52.633C71.383,52.62 71.373,52.608 71.36,52.608L71.283,52.608C71.275,52.608 71.266,52.606 71.262,52.601C71.256,52.597 71.254,52.587 71.254,52.579L71.254,52.478C71.254,52.47 71.252,52.464 71.246,52.456C71.237,52.448 71.183,52.395 71.158,52.368L71.158,46.351C71.158,46.331 71.173,46.333 71.173,46.333L71.195,46.333C71.217,46.333 71.221,46.316 71.221,46.294L71.221,46.175C71.221,46.142 71.225,46.069 71.241,46.045C71.25,46.025 71.248,46 71.211,46L71.162,46C71.114,46 71.11,45.948 71.13,45.929C71.279,45.807 71.294,45.595 71.294,45.553C71.294,45.517 71.292,45.484 71.333,45.484L71.401,45.483" style="fill:white;fill-rule:nonzero;"/>
            <path id="path38" d="M84.365,39.135L84.197,39.135C84.153,39.135 84.155,39.098 84.155,39.098L84.155,38.917C84.155,38.871 84.11,38.871 84.11,38.871L83.945,38.871C83.899,38.871 83.901,38.83 83.901,38.83L83.901,38.663C83.901,38.663 83.901,38.626 83.859,38.626L83.76,38.626C83.726,38.626 83.689,38.597 83.687,38.55C83.682,38.322 83.76,36.713 82.911,35.549C82.242,34.549 81.321,34.042 80.813,33.805C80.803,33.588 80.494,33.506 80.36,33.459C80.288,33.435 80.227,33.407 80.227,33.344C80.227,33.34 80.225,33.273 80.225,33.27C80.225,33.202 80.287,33.175 80.379,33.178C80.408,33.179 80.429,33.154 80.429,33.136L80.429,32.94C80.429,32.912 80.404,32.881 80.364,32.881C80.296,32.881 80.219,32.881 80.18,32.881C80.136,32.881 80.115,32.841 80.115,32.816L80.115,32.719C80.115,32.661 80.071,32.629 80.036,32.612L80.036,31.412C80.036,31.371 80.067,31.377 80.094,31.377C80.098,31.377 80.104,31.377 80.107,31.375L80.111,31.375C80.126,31.375 80.14,31.361 80.14,31.346L80.14,31.231C80.14,31.215 80.126,31.203 80.111,31.203L80.057,31.203C80.038,31.194 80.025,31.169 80.025,31.115C80.025,31.06 80.041,31.033 80.065,31.029L80.111,31.029C80.126,31.029 80.14,31.016 80.14,31L80.14,30.884C80.14,30.869 80.126,30.856 80.111,30.856L80.049,30.856C80.023,30.852 80.003,30.84 79.976,30.819C79.772,30.657 79.566,30.424 79.566,30.39L79.566,30.346C79.566,30.322 79.541,30.273 79.485,30.273C79.431,30.273 79.439,30.217 79.467,30.217C79.487,30.217 79.491,30.211 79.491,30.185L79.491,30.107C79.491,30.072 79.386,29.928 79.386,29.928L79.379,29.928C79.379,29.928 79.273,30.072 79.273,30.107L79.273,30.185C79.273,30.211 79.281,30.217 79.299,30.217C79.327,30.217 79.335,30.273 79.283,30.273C79.227,30.273 79.202,30.322 79.202,30.346C79.202,30.37 79.2,30.371 79.2,30.39C79.2,30.424 78.994,30.657 78.79,30.819C78.763,30.84 78.743,30.852 78.717,30.856L78.654,30.856C78.64,30.856 78.626,30.869 78.626,30.884L78.626,31C78.626,31.016 78.64,31.029 78.654,31.029L78.703,31.029C78.724,31.033 78.741,31.06 78.741,31.115C78.741,31.169 78.727,31.194 78.709,31.203L78.654,31.203C78.64,31.203 78.626,31.215 78.626,31.231L78.626,31.346C78.626,31.361 78.64,31.375 78.654,31.375L78.658,31.375C78.664,31.377 78.668,31.377 78.672,31.377C78.699,31.377 78.731,31.371 78.731,31.412L78.731,32.612C78.697,32.629 78.65,32.661 78.65,32.719L78.65,32.816C78.65,32.841 78.63,32.881 78.585,32.881C78.547,32.881 78.468,32.881 78.402,32.881C78.361,32.881 78.335,32.912 78.335,32.94L78.335,33.136C78.335,33.154 78.357,33.179 78.385,33.178C78.478,33.175 78.541,33.202 78.541,33.27C78.541,33.273 78.539,33.34 78.539,33.344C78.539,33.407 78.476,33.435 78.406,33.459C78.272,33.506 77.963,33.588 77.955,33.805C77.445,34.042 76.522,34.549 75.857,35.549C75.005,36.713 75.086,38.322 75.078,38.55C75.076,38.597 75.042,38.626 75.005,38.626L74.907,38.626C74.864,38.626 74.864,38.663 74.864,38.663L74.864,38.83C74.864,38.83 74.866,38.871 74.822,38.871L74.655,38.871C74.655,38.871 74.613,38.871 74.613,38.917L74.613,39.098C74.613,39.098 74.615,39.135 74.566,39.135L74.399,39.135C74.399,39.135 74.352,39.135 74.352,39.182L74.352,39.376C74.352,39.398 74.366,39.402 74.381,39.404C74.431,39.411 74.533,39.457 74.533,39.568C74.533,39.757 74.649,39.775 74.696,39.775L74.696,40.476C74.696,40.639 74.568,40.703 74.496,40.72C74.482,40.723 74.462,40.74 74.462,40.759L74.462,41.48L79.379,40.395L79.386,40.395L84.304,41.48L84.304,40.759C84.304,40.74 84.282,40.723 84.267,40.72C84.195,40.703 84.07,40.639 84.07,40.476L84.07,39.775C84.116,39.775 84.233,39.757 84.233,39.568C84.233,39.457 84.334,39.411 84.383,39.404C84.4,39.402 84.413,39.398 84.413,39.376L84.413,39.182C84.413,39.135 84.365,39.135 84.365,39.135" style="fill:white;fill-rule:nonzero;"/>
            <path id="path40" d="M89.805,54.851L89.805,53.413L88.964,53.413L88.964,52.785L69.788,52.785L69.788,53.412L68.945,53.412L68.945,54.848L68.1,54.848L68.1,56.3L90.65,56.302L90.65,54.851L89.805,54.851" style="fill:white;fill-rule:nonzero;"/>
        </g>
    </g>
    <g id="left" transform="matrix(0.909616,0,0,0.909616,7.23816,5)">
        <g id="RWTH_Logo_3.svg" transform="matrix(0.354105,0,0,0.354105,64.3398,17.3511)">
            <g transform="matrix(1,0,0,1,-180.68,-49)">
                <clipPath id="_clip1">
                    <rect x="0" y="0" width="361.36" height="98"/>
                </clipPath>
                <g clip-path="url(#_clip1)">
                    <g>
                        <rect id="canvas_background" x="-1" y="-1" width="363.36" height="100" style="fill:none;"/>
                    </g>
                    <g>
                        <path id="rwth" d="M16.475,46.814L1.296,46.814L1.296,1.194L26.184,1.194C32.934,1.193 38.754,5.562 40.653,11.355C42.413,16.721 40.909,22.554 36.94,26.703C37.468,28.134 37.982,29.251 38.472,30.536C39.573,33.076 40.583,35.616 41.684,38.125L45.295,46.814L29.904,46.814C29.904,46.821 29.781,46.446 29.659,46.294C29.048,44.948 28.497,43.509 27.885,42.163L24.183,33.382C22.715,29.832 21.246,26.479 19.777,22.929C21.611,22.88 22.981,23.223 24.751,22.411C25.993,21.798 27.878,20.278 27.926,17.364C27.878,15.918 27.478,14.824 26.523,13.687C25.564,12.629 24.177,11.845 22.371,11.819C22.371,11.819 16.471,11.816 16.475,11.819L16.475,46.814ZM175.006,1.202L159.826,1.202L159.826,17.662L149.201,17.662L149.201,1.202L87.794,1.202L87.794,21.702C87.916,22.65 88.13,23.598 88.222,24.578L84.122,15.246C82.286,10.962 80.542,6.678 78.706,2.364C78.553,1.966 78.444,1.699 78.246,1.202L62.581,1.202C62.581,3.435 62.612,5.913 62.581,8.086L62.581,21.702C62.734,22.558 63.01,23.69 63.133,24.578L63.041,24.394C59.675,16.714 56.432,9.004 53.22,1.202L37.591,1.202C37.897,2.12 38.386,2.946 38.693,3.864L42.145,11.949L44.554,17.609L44.707,17.953C45.815,20.592 46.692,22.659 47.767,25.197C50.866,32.525 53.848,39.6 56.954,46.821L72.619,46.821L72.619,22.956C73.016,24.302 73.323,25.679 73.629,27.056C76.291,33.603 79.168,40.243 81.89,46.821L97.525,46.821L97.525,11.758L108.232,11.758L108.232,46.821L123.411,46.821L123.411,11.758L134.025,11.758L134.025,46.821L140.727,46.821C143.481,46.791 146.45,46.821 149.203,46.821L149.203,28.219L159.828,28.219L159.828,46.821L175.006,46.821L175.006,1.202Z" style="fill:rgb(0,84,159);"/>
                        <path id="aachen" d="M228.943,1.428L217.622,1.428L208.146,37.23L198.668,1.428L187.345,1.428L175.325,46.845L184.867,46.845L186.965,37.24L199.051,37.24L201.15,46.845L215.142,46.845L217.24,37.24L229.327,37.24L231.426,46.845L240.967,46.845L228.943,1.428ZM188.555,29.734L192.945,9.316L193.072,9.316L197.46,29.734L188.555,29.734ZM218.831,29.734L223.221,9.316L223.348,9.316L227.735,29.734L218.831,29.734ZM259.092,16.758C259.092,10.142 257.756,7.28 253.621,7.28C248.977,7.28 247.895,11.924 247.895,24.772C247.895,38.512 249.804,40.992 253.748,40.992C257.057,40.992 259.472,39.275 259.472,29.479L268.633,29.479C268.633,39.275 266.215,47.735 254.195,47.735C240.454,47.735 238.738,37.939 238.738,24.137C238.738,10.333 240.454,0.537 254.195,0.537C267.298,0.537 268.25,10.142 268.25,16.758L259.092,16.758ZM270.027,1.429L279.184,1.429L279.184,18.793L289.872,18.793L289.872,1.429L299.031,1.429L299.031,46.845L289.872,46.845L289.872,26.681L279.184,26.681L279.184,46.845L270.027,46.845L270.027,1.429ZM326.952,1.428L326.952,8.933L310.732,8.933L310.732,19.619L325.996,19.619L325.996,27.126L310.732,27.126L310.732,39.338L327.588,39.338L327.588,46.844L301.57,46.844L301.57,1.428L326.952,1.428ZM340.186,1.428L351.253,32.532L351.379,32.532L351.379,1.428L359.776,1.428L359.776,46.844L349.343,46.844L338.151,15.04L338.02,15.04L338.02,46.844L329.625,46.844L329.625,1.428L340.186,1.428Z" style="fill:rgb(142,186,229);"/>
                        <path id="university" d="M241.139,57.688L245.466,57.688C249.6,57.688 251.825,59.787 251.825,63.984C251.825,68.884 249.346,70.793 244.955,70.793L241.139,70.793L241.139,57.688ZM231.98,96.363L241.139,96.363L241.139,77.152L246.038,77.152C249.726,77.152 251.315,79.314 251.445,82.875L251.698,91.59C251.761,93.372 251.951,95.09 252.844,96.363L262.765,96.363L262.765,95.98C261.049,95.09 260.793,92.609 260.729,87.838C260.603,78.234 259.65,74.8 253.417,73.97L253.417,73.844C258.567,72.761 260.985,68.691 260.985,62.648C260.985,54.889 256.405,50.945 248.9,50.945L231.98,50.945L231.98,96.363ZM97.216,50.945L97.216,82.622C97.216,94.771 104.278,97.253 111.719,97.253C119.162,97.253 126.222,94.198 126.222,82.622L126.222,50.945L117.062,50.945L117.062,82.622C117.062,87.139 115.981,90.51 111.719,90.51C107.457,90.51 106.376,87.139 106.376,82.622L106.376,50.945L97.216,50.945ZM128.185,50.945L128.185,96.363L136.581,96.363L136.581,64.557L136.708,64.557L147.904,96.363L158.336,96.363L158.336,50.945L149.939,50.945L149.939,82.049L149.812,82.049L138.745,50.945L128.185,50.945ZM169.85,50.945L160.691,50.945L160.691,96.363L169.85,96.363L169.85,50.945ZM170.479,50.945L180.911,96.363L192.678,96.363L203.112,50.945L193.634,50.945L186.888,84.531L186.699,84.531L180.276,50.945L170.479,50.945ZM203.925,50.945L203.925,96.363L229.943,96.363L229.943,88.855L213.084,88.855L213.084,76.643L228.351,76.643L228.351,69.137L213.084,69.137L213.084,58.45L229.307,58.45L229.307,50.945L203.925,50.945ZM261.747,82.176L261.747,84.021C261.747,92.419 265.818,97.253 276.185,97.253C286.11,97.253 291.959,92.926 291.959,83.322C291.959,77.788 290.179,74.291 283.31,71.299L276.248,68.248C272.367,66.592 271.541,64.876 271.541,62.078C271.541,59.406 272.624,56.798 276.758,56.798C280.256,56.798 281.718,59.28 281.718,63.541L290.496,63.541L290.496,62.268C290.496,53.553 284.583,50.056 276.437,50.056C267.79,50.056 262.382,54.573 262.382,63.414C262.382,70.983 266.134,74.354 274.275,77.152C280.318,79.251 282.418,80.777 282.418,84.914C282.418,88.728 279.746,90.511 276.948,90.511C272.114,90.511 270.905,87.776 270.905,83.512L270.905,82.176L261.747,82.176ZM302.317,50.945L293.156,50.945L293.156,96.363L302.317,96.363L302.317,50.945ZM349.891,50.945L343.532,68.501L343.405,68.501L337.426,50.945L303.518,50.945L303.518,58.45L313.442,58.45L313.442,96.363L322.6,96.363L322.6,58.45L330.327,58.45L338.889,78.488L338.889,96.363L348.049,96.363L348.049,78.488L359.816,50.945L349.891,50.945Z" style="fill:rgb(142,186,229);"/>
                    </g>
                </g>
            </g>
        </g>
        <g id="Saarland" transform="matrix(0.312397,0,0,-0.312397,-36.8711,100.556)">
            <g transform="matrix(1.0022,0,0,1.0022,115.525,-0.36205)">
                <g>
                    <path d="M403.35,27.938C399.666,27.938 396.866,28.719 394.481,31.141L397.551,34.211C399.086,32.68 401.166,32.165 403.416,32.165C406.213,32.165 407.717,33.225 407.717,35.168C407.717,36.02 407.477,36.735 406.963,37.215C406.487,37.657 405.942,37.895 404.817,38.067L401.881,38.475C399.801,38.782 398.266,39.43 397.176,40.491C396.016,41.651 395.436,43.219 395.436,45.266C395.436,49.596 398.641,52.633 403.893,52.633C407.237,52.633 409.659,51.813 411.743,49.801L408.737,46.833C407.202,48.301 405.362,48.506 403.756,48.506C401.233,48.506 400.006,47.106 400.006,45.436C400.006,44.821 400.211,44.172 400.721,43.696C401.202,43.251 401.987,42.876 402.975,42.741L405.838,42.331C408.057,42.026 409.457,41.411 410.477,40.456C411.776,39.227 412.352,37.456 412.352,35.305C412.352,30.598 408.432,27.938 403.35,27.938" style="fill:rgb(16,66,122);fill-rule:nonzero;"/>
                    <path d="M374.7,28.139L374.7,52.43L390.702,52.43L390.702,48.2L379.44,48.2L379.44,42.5L389.026,42.5L389.026,38.27L379.44,38.27L379.44,32.369L390.702,32.369L390.702,28.139L374.7,28.139Z" style="fill:rgb(16,66,122);fill-rule:nonzero;"/>
                    <path d="M362.99,46.7C362.172,47.686 361.08,48.2 359.445,48.2L355.859,48.2L355.859,32.37L359.445,32.37C361.08,32.37 362.172,32.884 362.99,33.872C363.879,34.962 364.015,36.704 364.015,40.386C364.015,44.071 363.879,45.606 362.99,46.7M366.301,30.46C364.695,28.856 362.41,28.139 359.885,28.139L351.119,28.139L351.119,52.43L359.885,52.43C362.41,52.43 364.695,51.712 366.301,50.11C369.027,47.382 368.756,44.036 368.756,40.386C368.756,36.735 369.027,33.19 366.301,30.46" style="fill:rgb(16,66,122);fill-rule:nonzero;"/>
                    <path d="M339.18,28.139L329.563,43.047L329.563,28.139L324.821,28.139L324.821,52.43L329.051,52.43L338.668,37.555L338.668,52.43L343.41,52.43L343.41,28.139L339.18,28.139Z" style="fill:rgb(16,66,122);fill-rule:nonzero;"/>
                    <path d="M309.85,45.266L306.78,36.43L312.817,36.43L309.85,45.266ZM315.512,28.139L314.077,32.44L305.448,32.44L303.981,28.139L299.036,28.139L307.871,52.43L311.588,52.43L320.457,28.139L315.512,28.139Z" style="fill:rgb(16,66,122);fill-rule:nonzero;"/>
                    <path d="M280.72,28.139L280.72,52.43L285.462,52.43L285.462,32.369L296.478,32.369L296.478,28.139L280.72,28.139Z" style="fill:rgb(16,66,122);fill-rule:nonzero;"/>
                    <path d="M266.25,48.2L261.781,48.2L261.781,41.786L266.25,41.786C268.33,41.786 269.695,43.116 269.695,44.991C269.695,46.866 268.33,48.2 266.25,48.2M269.936,28.139L265.195,37.831L261.781,37.831L261.781,28.139L257.039,28.139L257.039,52.43L266.559,52.43C271.506,52.43 274.438,49.052 274.438,44.991C274.438,41.581 272.355,39.466 270.004,38.614L275.426,28.139L269.936,28.139Z" style="fill:rgb(16,66,122);fill-rule:nonzero;"/>
                    <path d="M242.07,45.266L239,36.43L245.035,36.43L242.07,45.266ZM247.73,28.139L246.299,32.44L237.67,32.44L236.201,28.139L231.254,28.139L240.09,52.43L243.81,52.43L252.675,28.139L247.73,28.139Z" style="fill:rgb(16,66,122);fill-rule:nonzero;"/>
                    <path d="M218.26,45.266L215.19,36.43L221.227,36.43L218.26,45.266ZM223.922,28.139L222.49,32.44L213.86,32.44L212.395,28.139L207.446,28.139L216.281,52.43L220,52.43L228.867,28.139L223.922,28.139Z" style="fill:rgb(16,66,122);fill-rule:nonzero;"/>
                    <path d="M195.26,27.938C191.578,27.938 188.78,28.719 186.391,31.141L189.461,34.211C190.996,32.68 193.078,32.165 195.33,32.165C198.125,32.165 199.629,33.225 199.629,35.168C199.629,36.02 199.387,36.735 198.875,37.215C198.401,37.657 197.852,37.895 196.727,38.067L193.795,38.475C191.715,38.782 190.18,39.43 189.086,40.491C187.926,41.651 187.348,43.219 187.348,45.266C187.348,49.596 190.555,52.633 195.805,52.633C199.151,52.633 201.571,51.813 203.651,49.801L200.651,46.833C199.115,48.301 197.274,48.506 195.67,48.506C193.145,48.506 191.918,47.106 191.918,45.436C191.918,44.821 192.121,44.172 192.635,43.696C193.11,43.251 193.895,42.876 194.885,42.741L197.75,42.331C199.969,42.026 201.365,41.411 202.391,40.456C203.686,39.227 204.266,37.456 204.266,35.305C204.266,30.598 200.344,27.938 195.26,27.938" style="fill:rgb(16,66,122);fill-rule:nonzero;"/>
                </g>
                <g>
                    <path d="M239.37,68.872C235.684,68.872 232.888,69.657 230.499,72.079L233.569,75.149C235.104,73.614 237.184,73.102 239.438,73.102C242.235,73.102 243.735,74.159 243.735,76.104C243.735,76.954 243.495,77.673 242.985,78.149C242.505,78.595 241.96,78.833 240.835,79.005L237.903,79.411C235.819,79.72 234.284,80.368 233.194,81.425C232.034,82.585 231.454,84.155 231.454,86.199C231.454,90.531 234.659,93.566 239.915,93.566C243.259,93.566 245.681,92.75 247.761,90.734L244.759,87.769C243.224,89.234 241.38,89.439 239.778,89.439C237.255,89.439 236.024,88.043 236.024,86.369C236.024,85.758 236.229,85.109 236.743,84.629C237.22,84.188 238.005,83.813 238.995,83.674L241.856,83.266C244.075,82.959 245.475,82.345 246.497,81.39C247.794,80.161 248.372,78.39 248.372,76.239C248.372,71.532 244.45,68.872 239.37,68.872" style="fill:rgb(16,66,122);fill-rule:nonzero;"/>
                    <path d="M210.68,69.075L210.68,93.363L226.678,93.363L226.678,89.135L215.422,89.135L215.422,83.438L225.008,83.438L225.008,79.208L215.422,79.208L215.422,73.305L226.678,73.305L226.678,69.075L210.68,69.075Z" style="fill:rgb(16,66,122);fill-rule:nonzero;"/>
                    <path d="M198.99,87.632C198.17,88.62 197.08,89.134 195.439,89.134L191.859,89.134L191.859,73.305L195.439,73.305C197.08,73.305 198.17,73.819 198.99,74.805C199.875,75.899 200.013,77.639 200.013,81.32C200.013,85.003 199.875,86.538 198.99,87.632M202.299,71.395C200.695,69.793 198.41,69.074 195.885,69.074L187.119,69.074L187.119,93.362L195.885,93.362C198.41,93.362 200.695,92.648 202.299,91.044C205.025,88.314 204.752,84.972 204.752,81.32C204.752,77.672 205.025,74.123 202.299,71.395" style="fill:rgb(16,66,122);fill-rule:nonzero;"/>
                </g>
                <g>
                    <path d="M399.09,130.07L399.09,110.013L394.348,110.013L394.348,130.07L388.006,130.07L388.006,134.3L405.434,134.3L405.434,130.07L399.09,130.07Z" style="fill:rgb(16,66,122);fill-rule:nonzero;"/>
                    <path d="M378.58,140.98L382.369,140.98L382.369,136.714L378.58,136.714L378.58,140.98ZM376.877,127.13L373.806,118.295L379.843,118.295L376.877,127.13ZM371.043,140.98L374.828,140.98L374.828,136.714L371.043,136.714L371.043,140.98ZM382.539,110.005L381.107,114.304L372.478,114.304L371.007,110.005L366.062,110.005L374.898,134.293L378.615,134.293L387.484,110.005L382.539,110.005Z" style="fill:rgb(16,66,122);fill-rule:nonzero;"/>
                    <path d="M359.21,130.07L359.21,110.013L354.47,110.013L354.47,130.07L348.124,130.07L348.124,134.3L365.556,134.3L365.556,130.07L359.21,130.07Z" style="fill:rgb(16,66,122);fill-rule:nonzero;"/>
                    <rect x="338.16" y="110.013" width="4.74" height="24.287" style="fill:rgb(16,66,122);fill-rule:nonzero;"/>
                    <path d="M323.32,109.8C319.636,109.8 316.84,110.585 314.453,113.007L317.523,116.077C319.058,114.542 321.136,114.03 323.39,114.03C326.185,114.03 327.687,115.089 327.687,117.032C327.687,117.886 327.449,118.601 326.935,119.079C326.461,119.523 325.914,119.761 324.789,119.931L321.855,120.339C319.775,120.648 318.24,121.296 317.144,122.355C315.988,123.513 315.406,125.083 315.406,127.13C315.406,131.46 318.615,134.497 323.865,134.497C327.211,134.497 329.631,133.679 331.711,131.667L328.711,128.698C327.175,130.165 325.332,130.37 323.73,130.37C321.205,130.37 319.976,128.972 319.976,127.3C319.976,126.687 320.185,126.038 320.695,125.562C321.172,125.116 321.955,124.741 322.945,124.605L325.81,124.195C328.027,123.888 329.429,123.275 330.451,122.32C331.746,121.091 332.326,119.318 332.326,117.169C332.326,112.462 328.406,109.8 323.32,109.8" style="fill:rgb(16,66,122);fill-rule:nonzero;"/>
                    <path d="M302.17,130.07L297.699,130.07L297.699,123.658L302.17,123.658C304.25,123.658 305.615,124.988 305.615,126.863C305.615,128.74 304.25,130.07 302.17,130.07M305.852,110.013L301.109,119.701L297.699,119.701L297.699,110.013L292.959,110.013L292.959,134.3L302.475,134.3C307.42,134.3 310.356,130.925 310.356,126.863C310.356,123.453 308.275,121.34 305.92,120.486L311.346,110.013L305.852,110.013Z" style="fill:rgb(16,66,122);fill-rule:nonzero;"/>
                    <path d="M270.96,110.01L270.96,134.297L286.956,134.297L286.956,130.067L275.7,130.067L275.7,124.371L285.286,124.371L285.286,120.141L275.7,120.141L275.7,114.239L286.956,114.239L286.956,110.01L270.96,110.01Z" style="fill:rgb(16,66,122);fill-rule:nonzero;"/>
                    <path d="M258.95,110.01L255.401,110.01L247.386,134.297L252.298,134.297L257.177,118.469L262.055,134.297L267.001,134.297L258.95,110.01Z" style="fill:rgb(16,66,122);fill-rule:nonzero;"/>
                    <rect x="238.35" y="110.013" width="4.742" height="24.287" style="fill:rgb(16,66,122);fill-rule:nonzero;"/>
                    <path d="M226.41,110.01L216.791,124.916L216.791,110.01L212.047,110.01L212.047,134.297L216.277,134.297L225.896,119.426L225.896,134.297L230.637,134.297L230.637,110.01L226.41,110.01Z" style="fill:rgb(16,66,122);fill-rule:nonzero;"/>
                    <path d="M196.46,109.8C191.48,109.8 187.521,113.177 187.521,118.329L187.521,134.292L192.265,134.292L192.265,118.499C192.265,115.702 193.899,114.03 196.46,114.03C199.017,114.03 200.69,115.702 200.69,118.499L200.69,134.292L205.396,134.292L205.396,118.329C205.396,113.177 201.44,109.8 196.46,109.8" style="fill:rgb(16,66,122);fill-rule:nonzero;"/>
                </g>
            </g>
            <g transform="matrix(1.0022,0,0,1.0022,115.525,-0.36205)">
                <path d="M149.54,125.17L149.54,27.54L143.028,27.54C130.845,27.54 119.632,33.3 113.529,39.099L113.529,22.249L128.662,22.249L134.892,10.263L132.013,10.263L125.458,14.843L116.955,14.843L119.984,11.567L121.027,2.14L118.439,2.14L106.765,14.843L88.24,14.843L84.218,10.263L81.634,10.263L84.783,22.249L99.957,22.249L91.767,31.155L61.249,31.155L53.06,22.249L68.234,22.249L71.386,10.263L68.796,10.263L64.777,14.843L46.249,14.843L34.572,2.138L31.988,2.138L33.031,11.562L36.06,14.843L27.558,14.843L21.007,10.263L18.124,10.263L24.359,22.249L39.646,22.249L39.646,39.083C33.54,33.29 22.332,27.54 10.162,27.54L3.646,27.54L3.646,125.17C3.646,133.402 10.169,138.018 18.326,138.018C28.46,138.018 35.873,130.883 40.162,123.762L43.642,165.871L60.33,165.871C60.33,165.871 65.404,158.668 66.939,156.49L85.564,156.49C87.103,158.656 92.244,165.871 92.244,165.871L108.535,165.871L112.917,123.58C117.193,130.76 124.636,138.018 134.856,138.018C143.017,138.018 149.54,133.402 149.54,125.17" style="fill:rgb(16,66,122);fill-rule:nonzero;"/>
                <g>
                    <g>
                        <path d="M122.55,117.33C122.55,118.283 121.777,119.059 120.821,119.059C119.861,119.059 119.087,118.283 119.087,117.33L119.087,62.374C119.087,61.712 118.612,61.173 118.027,61.173C117.443,61.173 116.966,61.712 116.966,62.374L116.966,109.93C116.966,110.887 116.193,111.662 115.237,111.662C114.277,111.662 113.503,110.887 113.503,109.93L113.503,53.116C113.503,50.544 115.532,48.452 118.027,48.452C120.523,48.452 122.55,50.544 122.55,53.116L122.55,117.33Z" style="fill:white;fill-rule:nonzero;"/>
                        <path d="M137.82,123.61C137.82,124.565 137.043,125.34 136.088,125.34C135.132,125.34 134.355,124.565 134.355,123.61L134.355,63.343C134.355,62.683 133.882,62.14 133.293,62.14C132.713,62.14 132.234,62.683 132.234,63.343L132.234,124.813C132.234,125.768 131.461,126.544 130.504,126.544C129.549,126.544 128.774,125.768 128.774,124.813L128.774,46.314C128.774,43.746 130.802,41.65 133.293,41.65C135.789,41.65 137.82,43.746 137.82,46.314L137.82,123.61Z" style="fill:white;fill-rule:nonzero;"/>
                    </g>
                    <g>
                        <g>
                            <path d="M104.03,68.524C104.03,69.477 103.257,70.254 102.301,70.254C101.344,70.254 100.567,69.477 100.567,68.524L100.567,57.313C100.567,56.651 100.092,56.112 99.507,56.112C98.926,56.112 98.446,56.651 98.446,57.313L98.446,68.524C98.446,69.477 97.673,70.254 96.717,70.254C95.762,70.254 94.989,69.477 94.989,68.524L94.989,48.249C94.989,45.676 97.016,43.585 99.507,43.585C102.003,43.585 104.03,45.676 104.03,48.249L104.03,68.524Z" style="fill:white;fill-rule:nonzero;"/>
                            <path d="M88.771,63.893C88.771,64.848 87.994,65.625 87.041,65.625C86.082,65.625 85.308,64.848 85.308,63.893L85.308,52.68C85.308,52.016 84.833,51.477 84.248,51.477C83.662,51.477 83.187,52.016 83.187,52.68L83.187,63.893C83.187,64.848 82.414,65.625 81.455,65.625C80.498,65.625 79.724,64.848 79.724,63.893L79.724,43.618C79.724,41.043 81.751,38.954 84.248,38.954C86.74,38.954 88.771,41.043 88.771,43.618L88.771,63.893Z" style="fill:white;fill-rule:nonzero;"/>
                            <path d="M72.704,63.893C72.704,64.848 71.931,65.625 70.975,65.625C70.015,65.625 69.241,64.848 69.241,63.893L69.241,52.68C69.241,52.016 68.766,51.477 68.181,51.477C67.599,51.477 67.12,52.016 67.12,52.68L67.12,63.893C67.12,64.848 66.347,65.625 65.391,65.625C64.431,65.625 63.657,64.848 63.657,63.893L63.657,43.618C63.657,41.043 65.688,38.954 68.181,38.954C70.677,38.954 72.704,41.043 72.704,43.618L72.704,63.893Z" style="fill:white;fill-rule:nonzero;"/>
                            <path d="M57.439,68.524C57.439,69.477 56.662,70.254 55.707,70.254C54.751,70.254 53.974,69.477 53.974,68.524L53.974,57.313C53.974,56.651 53.501,56.112 52.916,56.112C52.332,56.112 51.853,56.651 51.853,57.313L51.853,68.524C51.853,69.477 51.08,70.254 50.123,70.254C49.168,70.254 48.394,69.477 48.394,68.524L48.394,48.249C48.394,45.676 50.421,43.585 52.916,43.585C55.408,43.585 57.439,45.676 57.439,48.249L57.439,68.524Z" style="fill:white;fill-rule:nonzero;"/>
                        </g>
                        <g>
                            <path d="M104.03,100.62C104.03,101.575 103.257,102.35 102.301,102.35C101.344,102.35 100.567,101.575 100.567,100.62L100.567,89.407C100.567,88.745 100.092,88.206 99.507,88.206C98.926,88.206 98.446,88.745 98.446,89.407L98.446,100.62C98.446,101.575 97.673,102.35 96.717,102.35C95.762,102.35 94.989,101.575 94.989,100.62L94.989,80.344C94.989,77.771 97.016,75.68 99.507,75.68C102.003,75.68 104.03,77.771 104.03,80.344L104.03,100.62Z" style="fill:white;fill-rule:nonzero;"/>
                            <path d="M88.771,95.986C88.771,96.939 87.994,97.715 87.041,97.715C86.082,97.715 85.308,96.939 85.308,95.986L85.308,84.774C85.308,84.11 84.833,83.57 84.248,83.57C83.662,83.57 83.187,84.11 83.187,84.774L83.187,95.986C83.187,96.939 82.414,97.715 81.455,97.715C80.498,97.715 79.724,96.939 79.724,95.986L79.724,75.708C79.724,73.139 81.751,71.044 84.248,71.044C86.74,71.044 88.771,73.139 88.771,75.708L88.771,95.986Z" style="fill:white;fill-rule:nonzero;"/>
                            <path d="M72.704,95.986C72.704,96.939 71.931,97.715 70.975,97.715C70.015,97.715 69.241,96.939 69.241,95.986L69.241,84.774C69.241,84.11 68.766,83.57 68.181,83.57C67.599,83.57 67.12,84.11 67.12,84.774L67.12,95.986C67.12,96.939 66.347,97.715 65.391,97.715C64.431,97.715 63.657,96.939 63.657,95.986L63.657,75.708C63.657,73.139 65.688,71.044 68.181,71.044C70.677,71.044 72.704,73.139 72.704,75.708L72.704,95.986Z" style="fill:white;fill-rule:nonzero;"/>
                            <path d="M57.439,100.62C57.439,101.575 56.662,102.35 55.707,102.35C54.751,102.35 53.974,101.575 53.974,100.62L53.974,89.407C53.974,88.745 53.501,88.206 52.916,88.206C52.332,88.206 51.853,88.745 51.853,89.407L51.853,100.62C51.853,101.575 51.08,102.35 50.123,102.35C49.168,102.35 48.394,101.575 48.394,100.62L48.394,80.344C48.394,77.771 50.421,75.68 52.916,75.68C55.408,75.68 57.439,77.771 57.439,80.344L57.439,100.62Z" style="fill:white;fill-rule:nonzero;"/>
                        </g>
                    </g>
                    <g>
                        <path d="M30.575,53.1C30.575,50.528 32.606,48.436 35.102,48.436C37.595,48.436 39.622,50.528 39.622,53.1L39.622,109.917C39.622,110.871 38.848,111.644 37.893,111.644C36.934,111.644 36.161,110.871 36.161,109.917L36.161,62.36C36.161,61.696 35.684,61.157 35.102,61.157C34.513,61.157 34.04,61.696 34.04,62.36L34.04,117.316C34.04,118.269 33.264,119.044 32.309,119.044C31.354,119.044 30.575,118.269 30.575,117.316L30.575,53.1Z" style="fill:white;fill-rule:nonzero;"/>
                        <path d="M15.312,46.303C15.312,43.735 17.339,41.641 19.835,41.641C22.33,41.641 24.357,43.735 24.357,46.303L24.357,124.804C24.357,125.757 23.58,126.532 22.625,126.532C21.669,126.532 20.896,125.757 20.896,124.804L20.896,63.332C20.896,62.674 20.419,62.133 19.835,62.133C19.25,62.133 18.775,62.674 18.775,63.332L18.775,123.601C18.775,124.558 18.001,125.331 17.041,125.331C16.085,125.331 15.312,124.558 15.312,123.601L15.312,46.303Z" style="fill:white;fill-rule:nonzero;"/>
                    </g>
                </g>
                <path d="M76.337,122.91L71.907,119.584L76.337,109.597L80.853,119.584L76.337,122.91Z" style="fill:white;fill-rule:nonzero;"/>
                <g>
                    <g>
                        <path d="M104.3,134.2C104.3,126.909 98.388,120.995 91.093,120.995C83.802,120.995 77.892,126.909 77.892,134.2C77.892,141.491 83.802,147.405 91.093,147.405C98.388,147.405 104.3,141.491 104.3,134.2" style="fill:white;fill-rule:nonzero;"/>
                        <path d="M101.12,134.2C101.12,128.665 96.636,124.18 91.1,124.18C85.565,124.18 81.079,128.665 81.079,134.2C81.079,139.733 85.565,144.22 91.1,144.22C96.636,144.22 101.12,139.733 101.12,134.2" style="fill:rgb(16,66,122);fill-rule:nonzero;"/>
                        <path d="M96.874,134.2C96.874,131.011 94.29,128.423 91.097,128.423C87.909,128.423 85.319,131.011 85.319,134.2C85.319,137.389 87.909,139.977 91.097,139.977C94.29,139.977 96.874,137.389 96.874,134.2" style="fill:white;fill-rule:nonzero;"/>
                    </g>
                    <g>
                        <path d="M74.861,134.2C74.861,126.909 68.955,120.995 61.66,120.995C54.369,120.995 48.459,126.909 48.459,134.2C48.459,141.491 54.369,147.405 61.66,147.405C68.955,147.405 74.861,141.491 74.861,134.2" style="fill:white;fill-rule:nonzero;"/>
                        <path d="M71.679,134.2C71.679,128.665 67.197,124.18 61.659,124.18C56.128,124.18 51.64,128.665 51.64,134.2C51.64,139.733 56.128,144.22 61.659,144.22C67.197,144.22 71.679,139.733 71.679,134.2" style="fill:rgb(16,66,122);fill-rule:nonzero;"/>
                        <path d="M67.437,134.2C67.437,131.011 64.853,128.423 61.66,128.423C58.472,128.423 55.882,131.011 55.882,134.2C55.882,137.389 58.472,139.977 61.66,139.977C64.853,139.977 67.437,137.389 67.437,134.2" style="fill:white;fill-rule:nonzero;"/>
                    </g>
                </g>
            </g>
        </g>
    </g>
</svg>
