<?xml version="1.0" encoding="UTF-8" standalone="no"?><!DOCTYPE svg PUBLIC "-//W3C//DTD SVG 1.1//EN" "http://www.w3.org/Graphics/SVG/1.1/DTD/svg11.dtd"><svg width="100%" height="100%" viewBox="0 0 428 209" version="1.1" xmlns="http://www.w3.org/2000/svg" xmlns:xlink="http://www.w3.org/1999/xlink" xml:space="preserve" xmlns:serif="http://www.serif.com/" style="fill-rule:evenodd;clip-rule:evenodd;stroke-linejoin:round;stroke-miterlimit:2;"><g id="DTU"><path d="M312.284,30.28l4.989,-0c2.202,-0 3.513,0.358 4.536,1.579c1.569,1.882 1.708,5.687 1.708,13.354l-0,13.369c-0,7.669 -0.139,11.469 -1.708,13.354c-1.023,1.22 -2.334,1.576 -4.536,1.576l-4.989,-0l-0,-43.232Zm-7.785,49.831l14.14,0c5.493,0 8.843,-1.248 10.874,-3.877c2.999,-3.591 3.094,-9.384 3.094,-18.272l-0,-12.13c-0,-8.884 -0.095,-14.681 -3.094,-18.271c-2.031,-2.63 -5.381,-3.879 -10.874,-3.879l-14.14,-0c-0.422,-0 -0.685,0.128 -0.869,0.314c-0.189,0.189 -0.316,0.445 -0.316,0.873l0,54.06c0,0.423 0.127,0.683 0.316,0.869c0.184,0.187 0.447,0.313 0.869,0.313Z" style="fill:#bf2f38;fill-rule:nonzero;"/><path d="M383.618,80.824c5.556,0 9.137,-1.487 11.34,-4.046c2.586,-3.005 3.223,-6.589 3.223,-11.986l-0,-39.923c-0,-0.428 -0.13,-0.684 -0.32,-0.873c-0.18,-0.186 -0.442,-0.314 -0.863,-0.314l-6.612,-0c-0.422,-0 -0.683,0.128 -0.869,0.314c-0.184,0.189 -0.315,0.445 -0.315,0.873l-0,39.909c-0,4.165 -0.313,6.642 -1.669,8.129c-0.918,1.006 -2.213,1.5 -4.036,1.5c-1.645,-0 -2.902,-0.459 -3.855,-1.509c-1.279,-1.41 -1.672,-3.804 -1.672,-8.12l0,-39.909c0,-0.428 -0.125,-0.684 -0.314,-0.873c-0.187,-0.186 -0.445,-0.314 -0.871,-0.314l-6.605,-0c-0.428,-0 -0.685,0.128 -0.874,0.314c-0.188,0.189 -0.309,0.445 -0.309,0.873l-0,39.923c-0,5.811 0.788,9.456 3.098,11.992c2.399,2.641 6.024,4.04 11.523,4.04Z" style="fill:#bf2f38;fill-rule:nonzero;"/><path d="M337.424,30.814l8.492,0l-0,48.115c-0,0.423 0.121,0.683 0.31,0.869c0.187,0.187 0.445,0.313 0.87,0.313l7.229,0c0.425,0 0.683,-0.126 0.868,-0.313c0.19,-0.186 0.315,-0.446 0.315,-0.869l-0,-48.115l8.49,0c0.424,0 0.682,-0.125 0.875,-0.312c0.183,-0.186 0.311,-0.447 0.311,-0.869l0,-4.764c0,-0.428 -0.128,-0.684 -0.311,-0.873c-0.193,-0.186 -0.451,-0.314 -0.875,-0.314l-26.574,-0c-0.427,-0 -0.685,0.128 -0.874,0.314c-0.188,0.189 -0.315,0.445 -0.315,0.873l-0,4.764c-0,0.422 0.127,0.683 0.315,0.869c0.189,0.187 0.447,0.312 0.874,0.312Z" style="fill:#bf2f38;fill-rule:nonzero;"/><path d="M381.498,120.248l22.669,-11.897l-22.669,-11.906c-29.36,11.423 -31.834,11.423 -61.188,0l-22.668,11.906l22.668,11.897c29.354,-11.417 31.828,-11.417 61.188,0Z" style="fill:#bf2f38;fill-rule:nonzero;"/><path d="M320.31,125.862l-22.668,11.902l22.668,11.897c29.354,-11.417 31.828,-11.417 61.188,0l22.669,-11.897l-22.669,-11.902c-29.36,11.42 -31.834,11.42 -61.188,-0Z" style="fill:#bf2f38;fill-rule:nonzero;"/><path d="M320.31,155.278l-22.668,11.897l22.668,11.9c29.354,-11.418 31.828,-11.418 61.188,-0l22.669,-11.9l-22.669,-11.897c-29.36,11.417 -31.834,11.417 -61.188,-0Z" style="fill:#bf2f38;fill-rule:nonzero;"/></g><g><clipPath id="_clip1"><rect id="RWTH_Logo_3.svg" x="15.762" y="10.417" width="242.487" height="65.762"/></clipPath><g clip-path="url(#_clip1)"><g><rect id="canvas_background" x="15.091" y="9.746" width="243.829" height="67.104" style="fill:none;"/></g><g><path id="rwth" d="M26.817,41.83l-10.185,0l-0,-30.612l16.7,-0c4.53,-0.001 8.435,2.931 9.71,6.818c1.181,3.601 0.172,7.515 -2.492,10.299c0.354,0.96 0.699,1.71 1.028,2.572c0.739,1.705 1.417,3.409 2.156,5.093l2.423,5.83l-10.328,0c-0,0.005 -0.083,-0.246 -0.165,-0.348c-0.41,-0.904 -0.779,-1.869 -1.19,-2.773l-2.484,-5.892c-0.985,-2.382 -1.971,-4.632 -2.957,-7.014c1.231,-0.033 2.15,0.197 3.338,-0.348c0.833,-0.411 2.098,-1.431 2.13,-3.387c-0.032,-0.97 -0.3,-1.704 -0.941,-2.467c-0.644,-0.71 -1.574,-1.236 -2.786,-1.254c-0,0 -3.959,-0.002 -3.957,0l0,23.483Zm106.381,-30.607l-10.186,-0l-0,11.045l-7.13,0l-0,-11.045l-41.207,-0l0,13.756c0.082,0.636 0.226,1.273 0.287,1.93l-2.751,-6.262c-1.232,-2.875 -2.402,-5.749 -3.634,-8.644c-0.103,-0.267 -0.176,-0.446 -0.309,-0.78l-10.512,-0c0,1.498 0.021,3.161 0,4.619l0,9.137c0.103,0.575 0.288,1.334 0.371,1.93l-0.062,-0.123c-2.259,-5.154 -4.435,-10.328 -6.59,-15.563l-10.488,-0c0.205,0.616 0.534,1.17 0.74,1.786l2.316,5.426l1.616,3.798l0.103,0.231c0.744,1.77 1.332,3.158 2.054,4.861c2.079,4.917 4.08,9.665 6.164,14.51l10.512,0l0,-16.014c0.267,0.903 0.473,1.827 0.678,2.751c1.786,4.393 3.717,8.849 5.543,13.263l10.492,0l0,-23.528l7.185,-0l0,23.528l10.186,0l-0,-23.528l7.122,-0l0,23.528l4.497,0c1.849,-0.02 3.841,0 5.688,0l0,-12.483l7.13,0l0,12.483l10.185,0l0,-30.612Z" style="fill:#00549f;"/><path id="aachen" d="M169.392,11.375l-7.597,-0l-6.359,24.024l-6.36,-24.024l-7.598,-0l-8.066,30.476l6.403,0l1.408,-6.445l8.11,-0l1.409,6.445l9.389,0l1.408,-6.445l8.111,-0l1.408,6.445l6.403,0l-8.069,-30.476Zm-27.102,18.994l2.946,-13.701l0.085,-0l2.945,13.701l-5.976,0Zm20.316,0l2.946,-13.701l0.086,-0l2.943,13.701l-5.975,0Zm27.017,-8.707c0,-4.44 -0.896,-6.36 -3.671,-6.36c-3.116,-0 -3.842,3.116 -3.842,11.737c-0,9.221 1.281,10.885 3.927,10.885c2.221,-0 3.841,-1.152 3.841,-7.726l6.148,0c-0,6.574 -1.623,12.251 -9.689,12.251c-9.221,-0 -10.372,-6.574 -10.372,-15.836c-0,-9.263 1.151,-15.836 10.372,-15.836c8.793,-0 9.432,6.445 9.432,10.885l-6.146,-0Zm7.338,-10.287l6.145,0l-0,11.652l7.172,0l-0,-11.652l6.146,0l-0,30.476l-6.146,0l-0,-13.531l-7.172,0l-0,13.531l-6.145,0l0,-30.476Zm38.199,-0l0,5.036l-10.884,-0l-0,7.171l10.242,-0l0,5.037l-10.242,0l-0,8.195l11.311,-0l-0,5.037l-17.459,-0l-0,-30.476l17.032,-0Zm8.881,-0l7.426,20.872l0.085,-0l-0,-20.872l5.634,-0l0,30.476l-7.001,-0l-7.51,-21.342l-0.088,-0l0,21.342l-5.633,-0l-0,-30.476l7.087,-0Z" style="fill:#8ebae5;"/><path id="university" d="M177.576,49.127l2.904,0c2.774,0 4.267,1.409 4.267,4.225c-0,3.288 -1.664,4.569 -4.61,4.569l-2.561,0l0,-8.794Zm-6.146,25.953l6.146,-0l0,-12.891l3.287,-0c2.475,-0 3.542,1.45 3.629,3.84l0.17,5.848c0.042,1.196 0.169,2.349 0.769,3.203l6.657,-0l-0,-0.257c-1.152,-0.597 -1.323,-2.262 -1.366,-5.464c-0.085,-6.444 -0.724,-8.749 -4.907,-9.306l0,-0.084c3.456,-0.727 5.078,-3.458 5.078,-7.513c0,-5.207 -3.073,-7.853 -8.109,-7.853l-11.354,-0l-0,30.477Zm-90.432,-30.477l-0,21.256c-0,8.153 4.739,9.818 9.732,9.818c4.994,0 9.732,-2.05 9.732,-9.818l0,-21.256l-6.147,-0l0,21.256c0,3.031 -0.725,5.293 -3.585,5.293c-2.86,0 -3.585,-2.262 -3.585,-5.293l-0,-21.256l-6.147,-0Zm20.781,-0l0,30.477l5.634,-0l0,-21.343l0.086,-0l7.513,21.343l7,-0l-0,-30.477l-5.635,-0l0,20.872l-0.085,-0l-7.427,-20.872l-7.086,-0Zm27.959,-0l-6.146,-0l0,30.477l6.146,-0l0,-30.477Zm0.422,-0l7.001,30.477l7.896,-0l7.001,-30.477l-6.36,-0l-4.527,22.537l-0.126,0l-4.311,-22.537l-6.574,-0Zm22.444,-0l-0,30.477l17.459,-0l0,-5.038l-11.313,-0l-0,-8.195l10.245,-0l-0,-5.037l-10.245,0l-0,-7.171l10.886,-0l0,-5.036l-17.032,-0Zm38.801,20.957l-0,1.238c-0,5.635 2.732,8.879 9.688,8.879c6.66,0 10.585,-2.903 10.585,-9.348c0,-3.714 -1.194,-6.06 -5.804,-8.068l-4.738,-2.047c-2.605,-1.112 -3.159,-2.263 -3.159,-4.141c-0,-1.793 0.727,-3.543 3.501,-3.543c2.347,0 3.328,1.666 3.328,4.525l5.891,-0l-0,-0.854c-0,-5.848 -3.968,-8.195 -9.435,-8.195c-5.802,0 -9.431,3.031 -9.431,8.964c-0,5.079 2.518,7.341 7.981,9.219c4.055,1.408 5.464,2.432 5.464,5.208c-0,2.559 -1.793,3.756 -3.671,3.756c-3.244,-0 -4.055,-1.835 -4.055,-4.697l0,-0.896l-6.145,-0Zm27.224,-20.957l-6.147,-0l-0,30.477l6.147,-0l-0,-30.477Zm31.924,-0l-4.267,11.78l-0.085,0l-4.013,-11.78l-22.753,-0l-0,5.036l6.659,-0l0,25.441l6.146,-0l-0,-25.441l5.185,-0l5.745,13.446l0,11.995l6.147,-0l-0,-11.995l7.896,-18.482l-6.66,-0Z" style="fill:#8ebae5;"/></g></g><g id="Saarland"><g><g><path d="M252.908,184.613c-2.186,-0 -3.847,-0.464 -5.262,-1.901l1.822,-1.821c0.91,0.908 2.144,1.214 3.479,1.214c1.66,-0 2.552,-0.629 2.552,-1.782c0,-0.505 -0.142,-0.93 -0.447,-1.214c-0.283,-0.263 -0.606,-0.404 -1.273,-0.506l-1.742,-0.242c-1.234,-0.182 -2.145,-0.567 -2.792,-1.196c-0.688,-0.688 -1.032,-1.619 -1.032,-2.833c-0,-2.569 1.901,-4.371 5.017,-4.371c1.984,0 3.421,0.487 4.658,1.68l-1.784,1.761c-0.91,-0.871 -2.002,-0.992 -2.955,-0.992c-1.497,-0 -2.225,0.83 -2.225,1.821c0,0.365 0.122,0.75 0.424,1.032c0.286,0.264 0.752,0.487 1.338,0.567l1.698,0.243c1.317,0.181 2.148,0.546 2.753,1.113c0.77,0.729 1.112,1.78 1.112,3.056c0,2.792 -2.326,4.371 -5.341,4.371" style="fill:#10427a;fill-rule:nonzero;"/><path d="M235.91,184.493l0,-14.412l9.494,0l0,2.51l-6.682,0l0,3.382l5.688,-0l-0,2.51l-5.688,-0l0,3.501l6.682,-0l0,2.509l-9.494,0Z" style="fill:#10427a;fill-rule:nonzero;"/><path d="M228.962,173.481c-0.485,-0.585 -1.133,-0.89 -2.103,-0.89l-2.127,0l-0,9.392l2.127,0c0.97,0 1.618,-0.305 2.103,-0.891c0.528,-0.647 0.609,-1.68 0.609,-3.865c-0,-2.186 -0.081,-3.097 -0.609,-3.746m1.965,9.635c-0.953,0.952 -2.309,1.377 -3.807,1.377l-5.201,0l0,-14.412l5.201,0c1.498,0 2.854,0.426 3.807,1.377c1.617,1.618 1.456,3.604 1.456,5.769c0,2.166 0.161,4.27 -1.456,5.889" style="fill:#10427a;fill-rule:nonzero;"/><path d="M214.836,184.493l-5.706,-8.845l0,8.845l-2.813,0l-0,-14.412l2.509,0l5.706,8.826l0,-8.826l2.814,0l-0,14.412l-2.51,0Z" style="fill:#10427a;fill-rule:nonzero;"/><path d="M197.434,174.332l-1.821,5.242l3.582,0l-1.761,-5.242Zm3.36,10.161l-0.852,-2.551l-5.12,-0l-0.87,2.551l-2.934,0l5.242,-14.412l2.205,0l5.262,14.412l-2.933,0Z" style="fill:#10427a;fill-rule:nonzero;"/><path d="M180.151,184.493l0,-14.412l2.814,0l-0,11.903l6.536,-0l-0,2.509l-9.35,0Z" style="fill:#10427a;fill-rule:nonzero;"/><path d="M171.566,172.591l-2.651,0l-0,3.806l2.651,-0c1.234,-0 2.044,-0.789 2.044,-1.902c0,-1.112 -0.81,-1.904 -2.044,-1.904m2.187,11.902l-2.813,-5.75l-2.025,0l-0,5.75l-2.814,0l0,-14.412l5.648,0c2.936,0 4.675,2.005 4.675,4.414c0,2.023 -1.236,3.278 -2.631,3.784l3.217,6.214l-3.257,0Z" style="fill:#10427a;fill-rule:nonzero;"/><path d="M157.22,174.332l-1.821,5.242l3.58,0l-1.759,-5.242Zm3.358,10.161l-0.849,-2.551l-5.12,-0l-0.871,2.551l-2.935,0l5.242,-14.412l2.207,0l5.26,14.412l-2.934,0Z" style="fill:#10427a;fill-rule:nonzero;"/><path d="M143.093,174.332l-1.821,5.242l3.582,0l-1.761,-5.242Zm3.36,10.161l-0.85,-2.551l-5.12,-0l-0.869,2.551l-2.937,0l5.242,-14.412l2.207,0l5.261,14.412l-2.934,0Z" style="fill:#10427a;fill-rule:nonzero;"/><path d="M129.447,184.613c-2.184,-0 -3.844,-0.464 -5.262,-1.901l1.822,-1.821c0.911,0.908 2.146,1.214 3.482,1.214c1.658,-0 2.551,-0.629 2.551,-1.782c-0,-0.505 -0.144,-0.93 -0.448,-1.214c-0.281,-0.263 -0.607,-0.404 -1.274,-0.506l-1.74,-0.242c-1.234,-0.182 -2.145,-0.567 -2.794,-1.196c-0.688,-0.688 -1.031,-1.619 -1.031,-2.833c0,-2.569 1.903,-4.371 5.018,-4.371c1.985,0 3.421,0.487 4.655,1.68l-1.78,1.761c-0.911,-0.871 -2.004,-0.992 -2.955,-0.992c-1.498,-0 -2.226,0.83 -2.226,1.821c-0,0.365 0.12,0.75 0.425,1.032c0.282,0.264 0.748,0.487 1.335,0.567l1.7,0.243c1.316,0.181 2.145,0.546 2.753,1.113c0.769,0.729 1.113,1.78 1.113,3.056c-0,2.792 -2.327,4.371 -5.344,4.371" style="fill:#10427a;fill-rule:nonzero;"/></g><g><path d="M155.618,160.326c-2.187,0 -3.846,-0.465 -5.263,-1.902l1.821,-1.822c0.911,0.911 2.145,1.215 3.482,1.215c1.66,-0 2.55,-0.627 2.55,-1.781c-0,-0.505 -0.143,-0.931 -0.445,-1.214c-0.285,-0.264 -0.608,-0.406 -1.276,-0.508l-1.739,-0.24c-1.237,-0.184 -2.147,-0.568 -2.794,-1.195c-0.688,-0.689 -1.033,-1.62 -1.033,-2.833c0,-2.57 1.902,-4.371 5.02,-4.371c1.984,0 3.421,0.484 4.656,1.681l-1.782,1.759c-0.91,-0.87 -2.004,-0.991 -2.955,-0.991c-1.497,-0 -2.227,0.828 -2.227,1.821c-0,0.363 0.122,0.748 0.426,1.033c0.283,0.261 0.749,0.484 1.337,0.566l1.697,0.242c1.317,0.182 2.147,0.547 2.754,1.113c0.769,0.73 1.112,1.78 1.112,3.056c0,2.793 -2.327,4.371 -5.341,4.371" style="fill:#10427a;fill-rule:nonzero;"/><path d="M138.596,160.206l0,-14.41l9.492,-0l-0,2.508l-6.678,0l-0,3.38l5.687,0l0,2.51l-5.687,-0l-0,3.502l6.678,0l-0,2.51l-9.492,-0Z" style="fill:#10427a;fill-rule:nonzero;"/><path d="M131.66,149.196c-0.486,-0.586 -1.133,-0.891 -2.106,-0.891l-2.124,-0l-0,9.391l2.124,0c0.973,0 1.62,-0.305 2.106,-0.89c0.526,-0.649 0.607,-1.681 0.607,-3.865c0,-2.185 -0.081,-3.096 -0.607,-3.745m1.964,9.633c-0.952,0.951 -2.308,1.378 -3.806,1.378l-5.201,-0l0,-14.411l5.201,0c1.498,0 2.854,0.424 3.806,1.376c1.617,1.619 1.455,3.602 1.455,5.769c0,2.164 0.162,4.27 -1.455,5.888" style="fill:#10427a;fill-rule:nonzero;"/></g><g><path d="M250.381,124.017l-0,11.9l-2.814,0l0,-11.9l-3.762,0l-0,-2.509l10.34,-0l-0,2.509l-3.764,0Z" style="fill:#10427a;fill-rule:nonzero;"/><path d="M238.212,117.544l2.248,0l0,2.531l-2.248,0l0,-2.531Zm-1.01,8.218l-1.822,5.241l3.581,0l-1.759,-5.241Zm-3.462,-8.218l2.246,0l-0,2.531l-2.246,0l0,-2.531Zm6.821,18.378l-0.85,-2.551l-5.119,0l-0.873,2.551l-2.934,-0l5.243,-14.41l2.205,-0l5.262,14.41l-2.934,-0Z" style="fill:#10427a;fill-rule:nonzero;"/><path d="M226.72,124.017l-0,11.9l-2.813,0l0,-11.9l-3.765,0l0,-2.509l10.343,-0l-0,2.509l-3.765,0Z" style="fill:#10427a;fill-rule:nonzero;"/><rect x="214.231" y="121.508" width="2.812" height="14.41" style="fill:#10427a;fill-rule:nonzero;"/><path d="M205.426,136.044c-2.186,-0 -3.845,-0.466 -5.261,-1.903l1.822,-1.822c0.91,0.911 2.143,1.215 3.481,1.215c1.658,-0 2.549,-0.628 2.549,-1.781c-0,-0.507 -0.141,-0.931 -0.446,-1.215c-0.281,-0.263 -0.606,-0.404 -1.273,-0.505l-1.741,-0.242c-1.234,-0.184 -2.145,-0.568 -2.795,-1.196c-0.686,-0.687 -1.031,-1.619 -1.031,-2.833c-0,-2.569 1.904,-4.371 5.018,-4.371c1.986,-0 3.421,0.485 4.655,1.679l-1.779,1.761c-0.912,-0.87 -2.005,-0.992 -2.956,-0.992c-1.498,0 -2.227,0.83 -2.227,1.822c0,0.363 0.124,0.748 0.427,1.031c0.283,0.265 0.747,0.487 1.335,0.568l1.699,0.243c1.316,0.182 2.148,0.546 2.754,1.112c0.768,0.73 1.112,1.781 1.112,3.057c0,2.792 -2.325,4.372 -5.343,4.372" style="fill:#10427a;fill-rule:nonzero;"/><path d="M192.878,124.017l-2.653,0l-0,3.805l2.653,-0c1.234,-0 2.044,-0.79 2.044,-1.902c-0,-1.114 -0.81,-1.903 -2.044,-1.903m2.184,11.9l-2.814,-5.748l-2.023,0l-0,5.748l-2.812,0l-0,-14.409l5.646,-0c2.933,-0 4.675,2.002 4.675,4.412c0,2.023 -1.234,3.277 -2.631,3.784l3.219,6.213l-3.26,0Z" style="fill:#10427a;fill-rule:nonzero;"/><path d="M174.361,135.919l-0,-14.41l9.49,0l0,2.51l-6.678,0l-0,3.38l5.687,-0l0,2.509l-5.687,0l-0,3.502l6.678,-0l0,2.509l-9.49,-0Z" style="fill:#10427a;fill-rule:nonzero;"/><path d="M167.235,135.919l-2.106,-0l-4.755,-14.41l2.914,0l2.895,9.391l2.894,-9.391l2.935,0l-4.777,14.41Z" style="fill:#10427a;fill-rule:nonzero;"/><rect x="155.013" y="121.508" width="2.813" height="14.41" style="fill:#10427a;fill-rule:nonzero;"/><path d="M147.929,135.919l-5.707,-8.844l-0,8.844l-2.815,-0l0,-14.41l2.51,0l5.707,8.823l-0,-8.823l2.813,0l-0,14.41l-2.508,-0Z" style="fill:#10427a;fill-rule:nonzero;"/><path d="M130.159,136.044c-2.954,-0 -5.303,-2.004 -5.303,-5.061l-0,-9.471l2.814,0l0,9.37c0,1.66 0.97,2.652 2.489,2.652c1.517,-0 2.51,-0.992 2.51,-2.652l0,-9.37l2.792,0l0,9.471c0,3.057 -2.347,5.061 -5.302,5.061" style="fill:#10427a;fill-rule:nonzero;"/></g></g><g><path d="M102.322,126.924l-0,57.925l-3.864,-0c-7.228,-0 -13.881,-3.418 -17.502,-6.858l0,9.997l8.979,-0l3.696,7.111l-1.708,0l-3.889,-2.717l-5.045,0l1.797,1.944l0.619,5.593l-1.536,-0l-6.926,-7.537l-10.991,0l-2.386,2.717l-1.533,0l1.868,-7.111l9.003,-0l-4.859,-5.284l-18.107,0l-4.859,5.284l9.003,-0l1.87,7.111l-1.536,0l-2.385,-2.717l-10.993,0l-6.928,7.538l-1.533,-0l0.619,-5.591l1.797,-1.947l-5.044,0l-3.887,2.717l-1.71,0l3.699,-7.111l9.07,-0l-0,-9.988c-3.623,3.437 -10.273,6.849 -17.493,6.849l-3.866,-0l-0,-57.925c-0,-4.884 3.87,-7.622 8.71,-7.622c6.012,-0 10.41,4.233 12.955,8.458l2.065,-24.984l9.901,0c-0,0 3.01,4.274 3.921,5.566l11.05,0c0.913,-1.285 3.964,-5.566 3.964,-5.566l9.665,0l2.6,25.092c2.537,-4.26 6.953,-8.566 13.016,-8.566c4.842,-0 8.713,2.738 8.713,7.622" style="fill:#10427a;fill-rule:nonzero;"/><g><g><path d="M86.308,131.576c0,-0.565 -0.458,-1.026 -1.026,-1.026c-0.569,0 -1.028,0.461 -1.028,1.026l-0,32.606c-0,0.392 -0.282,0.712 -0.629,0.712c-0.347,0 -0.63,-0.32 -0.63,-0.712l0,-28.216c0,-0.567 -0.458,-1.027 -1.026,-1.027c-0.569,-0 -1.028,0.46 -1.028,1.027l-0,33.708c-0,1.526 1.203,2.768 2.684,2.768c1.481,-0 2.683,-1.242 2.683,-2.768l0,-38.098Z" style="fill:#fff;fill-rule:nonzero;"/><path d="M95.368,127.85c-0,-0.567 -0.461,-1.026 -1.028,-1.026c-0.567,-0 -1.028,0.459 -1.028,1.026l0,35.757c0,0.391 -0.28,0.713 -0.63,0.713c-0.344,0 -0.628,-0.322 -0.628,-0.713l-0,-36.471c-0,-0.566 -0.459,-1.027 -1.027,-1.027c-0.566,0 -1.026,0.461 -1.026,1.027l-0,46.574c-0,1.524 1.203,2.767 2.681,2.767c1.481,0 2.686,-1.243 2.686,-2.767l-0,-45.86Z" style="fill:#fff;fill-rule:nonzero;"/></g><g><g><path d="M75.32,160.533c0,-0.566 -0.458,-1.027 -1.026,-1.027c-0.567,0 -1.028,0.461 -1.028,1.027l-0,6.651c-0,0.393 -0.282,0.713 -0.629,0.713c-0.345,-0 -0.63,-0.32 -0.63,-0.713l0,-6.651c0,-0.566 -0.458,-1.027 -1.026,-1.027c-0.566,0 -1.025,0.461 -1.025,1.027l0,12.029c0,1.527 1.203,2.767 2.681,2.767c1.481,0 2.683,-1.24 2.683,-2.767l0,-12.029Z" style="fill:#fff;fill-rule:nonzero;"/><path d="M66.267,163.28c-0,-0.566 -0.461,-1.027 -1.026,-1.027c-0.569,-0 -1.029,0.461 -1.029,1.027l0,6.653c0,0.394 -0.281,0.714 -0.629,0.714c-0.347,-0 -0.629,-0.32 -0.629,-0.714l-0,-6.653c-0,-0.566 -0.459,-1.027 -1.028,-1.027c-0.567,-0 -1.027,0.461 -1.027,1.027l0,12.03c0,1.527 1.203,2.767 2.684,2.767c1.479,-0 2.684,-1.24 2.684,-2.767l-0,-12.03Z" style="fill:#fff;fill-rule:nonzero;"/><path d="M56.734,163.28c0,-0.566 -0.458,-1.027 -1.025,-1.027c-0.57,-0 -1.029,0.461 -1.029,1.027l-0,6.653c-0,0.394 -0.282,0.714 -0.629,0.714c-0.345,-0 -0.63,-0.32 -0.63,-0.714l0,-6.653c0,-0.566 -0.458,-1.027 -1.025,-1.027c-0.57,-0 -1.029,0.461 -1.029,1.027l-0,12.03c-0,1.527 1.205,2.767 2.684,2.767c1.481,-0 2.683,-1.24 2.683,-2.767l0,-12.03Z" style="fill:#fff;fill-rule:nonzero;"/><path d="M47.678,160.533c-0,-0.566 -0.461,-1.027 -1.028,-1.027c-0.567,0 -1.028,0.461 -1.028,1.027l-0,6.651c-0,0.393 -0.281,0.713 -0.628,0.713c-0.346,-0 -0.631,-0.32 -0.631,-0.713l0,-6.651c0,-0.566 -0.458,-1.027 -1.026,-1.027c-0.567,0 -1.026,0.461 -1.026,1.027l0,12.029c0,1.527 1.203,2.767 2.683,2.767c1.479,0 2.684,-1.24 2.684,-2.767l-0,-12.029Z" style="fill:#fff;fill-rule:nonzero;"/></g><g><path d="M75.32,141.49c0,-0.566 -0.458,-1.026 -1.026,-1.026c-0.567,-0 -1.028,0.46 -1.028,1.026l-0,6.653c-0,0.393 -0.282,0.712 -0.629,0.712c-0.345,0 -0.63,-0.319 -0.63,-0.712l0,-6.653c0,-0.566 -0.458,-1.026 -1.026,-1.026c-0.566,-0 -1.025,0.46 -1.025,1.026l0,12.03c0,1.527 1.203,2.767 2.681,2.767c1.481,0 2.683,-1.24 2.683,-2.767l0,-12.03Z" style="fill:#fff;fill-rule:nonzero;"/><path d="M66.267,144.239c-0,-0.565 -0.461,-1.025 -1.026,-1.025c-0.569,-0 -1.029,0.46 -1.029,1.025l0,6.653c0,0.394 -0.281,0.714 -0.629,0.714c-0.347,-0 -0.629,-0.32 -0.629,-0.714l-0,-6.653c-0,-0.565 -0.459,-1.025 -1.028,-1.025c-0.567,-0 -1.027,0.46 -1.027,1.025l0,12.032c0,1.524 1.203,2.767 2.684,2.767c1.479,-0 2.684,-1.243 2.684,-2.767l-0,-12.032Z" style="fill:#fff;fill-rule:nonzero;"/><path d="M56.734,144.239c0,-0.565 -0.458,-1.025 -1.025,-1.025c-0.57,-0 -1.029,0.46 -1.029,1.025l-0,6.653c-0,0.394 -0.282,0.714 -0.629,0.714c-0.345,-0 -0.63,-0.32 -0.63,-0.714l0,-6.653c0,-0.565 -0.458,-1.025 -1.025,-1.025c-0.57,-0 -1.029,0.46 -1.029,1.025l-0,12.032c-0,1.524 1.205,2.767 2.684,2.767c1.481,-0 2.683,-1.243 2.683,-2.767l0,-12.032Z" style="fill:#fff;fill-rule:nonzero;"/><path d="M47.678,141.49c-0,-0.566 -0.461,-1.026 -1.028,-1.026c-0.567,-0 -1.028,0.46 -1.028,1.026l-0,6.653c-0,0.393 -0.281,0.712 -0.628,0.712c-0.346,0 -0.631,-0.319 -0.631,-0.712l0,-6.653c0,-0.566 -0.458,-1.026 -1.026,-1.026c-0.567,-0 -1.026,0.46 -1.026,1.026l0,12.03c0,1.527 1.203,2.767 2.683,2.767c1.479,0 2.684,-1.24 2.684,-2.767l-0,-12.03Z" style="fill:#fff;fill-rule:nonzero;"/></g></g><g><path d="M31.739,169.684c0,1.526 1.205,2.767 2.686,2.767c1.479,0 2.682,-1.241 2.682,-2.767l-0,-33.71c-0,-0.566 -0.46,-1.024 -1.026,-1.024c-0.569,-0 -1.028,0.458 -1.028,1.024l0,28.216c0,0.394 -0.283,0.714 -0.628,0.714c-0.35,-0 -0.63,-0.32 -0.63,-0.714l-0,-32.606c-0,-0.565 -0.461,-1.025 -1.027,-1.025c-0.567,0 -1.029,0.46 -1.029,1.025l0,38.1Z" style="fill:#fff;fill-rule:nonzero;"/><path d="M22.683,173.717c0,1.523 1.203,2.766 2.684,2.766c1.48,-0 2.683,-1.243 2.683,-2.766l-0,-46.575c-0,-0.566 -0.461,-1.026 -1.028,-1.026c-0.567,0 -1.026,0.46 -1.026,1.026l0,36.471c0,0.391 -0.283,0.712 -0.629,0.712c-0.347,-0 -0.629,-0.321 -0.629,-0.712l0,-35.758c0,-0.567 -0.459,-1.026 -1.029,-1.026c-0.567,-0 -1.026,0.459 -1.026,1.026l0,45.862Z" style="fill:#fff;fill-rule:nonzero;"/></g></g><path d="M58.89,128.265l-2.629,1.974l2.629,5.925l2.679,-5.925l-2.679,-1.974Z" style="fill:#fff;fill-rule:nonzero;"/><g><g><path d="M75.48,121.567c0,4.326 -3.507,7.835 -7.835,7.835c-4.326,-0 -7.833,-3.509 -7.833,-7.835c0,-4.326 3.507,-7.835 7.833,-7.835c4.328,0 7.835,3.509 7.835,7.835" style="fill:#fff;fill-rule:nonzero;"/><path d="M73.594,121.567c-0,3.284 -2.661,5.945 -5.945,5.945c-3.284,-0 -5.946,-2.661 -5.946,-5.945c0,-3.283 2.662,-5.945 5.946,-5.945c3.284,0 5.945,2.662 5.945,5.945" style="fill:#10427a;fill-rule:nonzero;"/><path d="M71.075,121.567c-0,1.892 -1.534,3.427 -3.428,3.427c-1.891,0 -3.428,-1.535 -3.428,-3.427c-0,-1.892 1.537,-3.428 3.428,-3.428c1.894,0 3.428,1.536 3.428,3.428" style="fill:#fff;fill-rule:nonzero;"/></g><g><path d="M58.014,121.567c0,4.326 -3.504,7.835 -7.832,7.835c-4.326,-0 -7.832,-3.509 -7.832,-7.835c-0,-4.326 3.506,-7.835 7.832,-7.835c4.328,0 7.832,3.509 7.832,7.835" style="fill:#fff;fill-rule:nonzero;"/><path d="M56.126,121.567c0,3.284 -2.659,5.945 -5.945,5.945c-3.281,-0 -5.944,-2.661 -5.944,-5.945c-0,-3.283 2.663,-5.945 5.944,-5.945c3.286,0 5.945,2.662 5.945,5.945" style="fill:#10427a;fill-rule:nonzero;"/><path d="M53.609,121.567c0,1.892 -1.533,3.427 -3.427,3.427c-1.892,0 -3.428,-1.535 -3.428,-3.427c-0,-1.892 1.536,-3.428 3.428,-3.428c1.894,0 3.427,1.536 3.427,3.428" style="fill:#fff;fill-rule:nonzero;"/></g></g></g></g></g></svg>