<?xml version="1.0" encoding="UTF-8" standalone="no"?><!DOCTYPE svg PUBLIC "-//W3C//DTD SVG 1.1//EN" "http://www.w3.org/Graphics/SVG/1.1/DTD/svg11.dtd"><svg width="100%" height="100%" viewBox="0 0 1084 380" version="1.1" xmlns="http://www.w3.org/2000/svg" xmlns:xlink="http://www.w3.org/1999/xlink" xml:space="preserve" xmlns:serif="http://www.serif.com/" style="fill-rule:evenodd;clip-rule:evenodd;stroke-linejoin:round;stroke-miterlimit:2;"><path d="M787.288,207.487l8.55,0c8.17,0 12.575,4.151 12.575,12.448c-0,9.679 -4.909,13.452 -13.584,13.452l-7.541,0l-0,-25.9Zm-18.105,76.444l18.105,-0l-0,-37.971l9.679,0c7.291,0 10.437,4.276 10.691,11.315l0.5,17.229c0.125,3.515 0.505,6.909 2.263,9.427l19.612,-0l0,-0.752c-3.391,-1.766 -3.895,-6.665 -4.02,-16.092c-0.25,-18.988 -2.138,-25.782 -14.459,-27.414l0,-0.249c10.183,-2.141 14.963,-10.184 14.963,-22.131c-0,-15.34 -9.054,-23.136 -23.892,-23.136l-33.442,0l0,89.774" style="fill:#7eb4e1;fill-rule:nonzero;"/><path d="M502.254,194.158l0,62.613c0,24.015 13.954,28.922 28.667,28.922c14.708,0 28.667,-6.035 28.667,-28.922l-0,-62.613l-18.105,0l0,62.613c0,8.927 -2.137,15.592 -10.562,15.592c-8.425,0 -10.563,-6.665 -10.563,-15.592l0,-62.613l-18.104,0" style="fill:#7eb4e1;fill-rule:nonzero;"/><path d="M564.017,194.158l-0,89.769l16.6,0l-0,-62.862l0.245,-0l22.134,62.862l20.621,0l-0,-89.769l-16.596,0l-0,61.482l-0.254,-0l-21.879,-61.482l-20.871,0" style="fill:#7eb4e1;fill-rule:nonzero;"/><rect x="628.271" y="194.159" width="18.104" height="89.769" style="fill:#7eb4e1;"/><path d="M647.617,194.158l20.616,89.769l23.263,0l20.617,-89.769l-18.734,0l-13.325,66.389l-0.375,-0l-12.7,-66.389l-19.362,0" style="fill:#7eb4e1;fill-rule:nonzero;"/><path d="M713.729,194.158l0,89.769l51.425,0l0,-14.832l-33.321,-0l0,-24.14l30.18,-0l-0,-14.841l-30.18,-0l0,-21.117l32.063,0l-0,-14.839l-50.167,0" style="fill:#7eb4e1;fill-rule:nonzero;"/><path d="M828.021,255.892l-0,3.646c-0,16.601 8.042,26.155 28.537,26.155c19.613,0 31.184,-8.549 31.184,-27.539c-0,-10.937 -3.525,-17.851 -17.104,-23.763l-13.955,-6.03c-7.666,-3.271 -9.304,-6.665 -9.304,-12.199c0,-5.278 2.142,-10.438 10.313,-10.438c6.908,0 9.804,4.904 9.804,13.33l17.35,0l-0,-2.518c-0,-17.224 -11.692,-24.135 -27.788,-24.135c-17.1,-0 -27.783,8.926 -27.783,26.398c0,14.966 7.421,21.631 23.508,27.161c11.946,4.151 16.096,7.165 16.096,15.339c0,7.544 -5.279,11.064 -10.808,11.064c-9.558,0 -11.95,-5.403 -11.95,-13.831l-0,-2.64l-18.1,0" style="fill:#7eb4e1;fill-rule:nonzero;"/><rect x="890.104" y="194.159" width="18.104" height="89.769" style="fill:#7eb4e1;"/><path d="M1002.25,194.158l-12.575,34.7l-0.25,-0l-11.817,-34.7l-67.025,0l0,14.839l19.613,0l-0,74.931l18.108,-0l0,-74.931l15.271,0l16.921,39.603l-0,35.327l18.108,0l0,-35.327l23.263,-54.442l-19.617,0" style="fill:#7eb4e1;fill-rule:nonzero;"/><path d="M343.206,185.993l-30,-0l0,-90.169l49.197,-0c13.339,-0.005 24.845,8.631 28.598,20.083c3.475,10.607 0.504,22.132 -7.336,30.336c1.042,2.826 2.056,5.038 3.023,7.575c2.181,5.022 4.173,10.041 6.352,15.002l7.138,17.173l-30.424,-0c0,0.018 -0.239,-0.724 -0.481,-1.027c-1.208,-2.66 -2.302,-5.506 -3.51,-8.164l-7.316,-17.359c-2.903,-7.016 -5.809,-13.647 -8.707,-20.657c3.621,-0.101 6.329,0.578 9.824,-1.031c2.458,-1.207 6.183,-4.212 6.279,-9.973c-0.096,-2.855 -0.887,-5.018 -2.775,-7.268c-1.895,-2.091 -4.637,-3.642 -8.208,-3.691c0,-0 -11.658,-0.003 -11.654,-0l0,69.17" style="fill:#095fa8;fill-rule:nonzero;"/><path d="M656.563,95.822l-0,90.171l-30,-0l-0,-36.768l-21.005,0l0,36.768c-5.441,-0 -11.308,-0.06 -16.75,-0l-13.25,-0l0,-69.305l-20.983,-0l0,69.305l-30,-0l0,-69.305l-21.163,-0l0,69.305l-30.904,-0c-5.383,-13.001 -11.066,-26.126 -16.329,-39.068c-0.604,-2.721 -1.208,-5.445 -1.996,-8.105l0,47.173l-30.966,-0c-6.138,-14.273 -12.034,-28.26 -18.155,-42.743c-2.119,-5.016 -3.857,-9.098 -6.048,-14.316l-0.301,-0.682l-4.768,-11.188l-6.822,-15.98c-0.601,-1.811 -1.568,-3.451 -2.177,-5.262l30.896,0c6.35,15.42 12.758,30.661 19.412,45.84l0.184,0.363c-0.242,-1.755 -0.792,-3.993 -1.092,-5.682l-0,-26.913c0.058,-4.297 -0,-9.196 -0,-13.608l30.962,0c0.392,0.981 0.609,1.512 0.909,2.3c3.629,8.525 7.079,16.99 10.708,25.459l8.104,18.444c-0.183,-1.937 -0.608,-3.809 -0.85,-5.682l0,-40.521l121.379,0l0,32.537l21.005,0l-0,-32.537l30,0" style="fill:#095fa8;fill-rule:nonzero;"/><path d="M763.663,95.812l-22.48,0l-18.816,71.081l-18.817,-71.081l-22.483,0l-23.871,90.181l18.942,-0l4.166,-19.073l24.009,0l4.158,19.073l27.787,-0l4.167,-19.073l24,0l4.167,19.073l18.945,-0l-23.875,-90.181Zm-80.195,56.205l8.716,-40.542l0.25,-0l8.713,40.542l-17.679,-0Zm60.116,-0l8.717,-40.542l0.246,-0l8.721,40.542l-17.684,-0" style="fill:#7eb4e1;fill-rule:nonzero;"/><path d="M841.7,126.584c0,-13.075 -1.879,-32.062 -27.787,-32.062c-27.155,-0 -30.555,19.361 -30.555,46.645c0,27.283 3.4,46.647 30.555,46.647c23.762,0 28.541,-16.722 28.541,-36.086l-18.104,0c0,19.364 -4.779,22.76 -11.317,22.76c-7.795,-0 -11.562,-4.903 -11.562,-32.063c-0,-25.397 2.133,-34.575 11.312,-34.575c8.171,0 10.813,5.659 10.813,18.734l18.104,-0" style="fill:#7eb4e1;fill-rule:nonzero;"/><path d="M846.033,185.993l18.18,-0l-0,-40.033l21.22,0l0,40.033l18.184,-0l-0,-90.169l-18.184,-0l0,34.477l-21.22,0l-0,-34.477l-18.18,-0l0,90.169" style="fill:#7eb4e1;fill-rule:nonzero;"/><path d="M907.558,95.804l0,90.189l51.671,-0l0,-14.904l-33.475,-0l0,-24.255l30.317,0l-0,-14.904l-30.317,0l0,-21.22l32.209,-0l-0,-14.906l-50.405,0" style="fill:#7eb4e1;fill-rule:nonzero;"/><path d="M961.925,95.824l0,90.169l16.671,-0l-0,-63.145l0.254,0l22.229,63.145l20.708,-0l0,-90.169l-16.666,-0l-0,61.753l-0.258,-0l-21.971,-61.753l-20.967,-0" style="fill:#7eb4e1;fill-rule:nonzero;"/><rect x="252.067" y="95.7" width="4.167" height="188.98" style="fill:#095fa8;"/><path d="M195.096,252.388l-52.813,-0l0,32.291l52.813,0l-0,-32.291Zm-3.708,-80.064c1.762,-5.558 2.649,-11.779 2.649,-18.657c-0,-8.999 -1.721,-17.113 -5.162,-24.351c-3.442,-7.234 -8.071,-13.32 -13.896,-18.263c-5.821,-4.936 -12.57,-8.735 -20.244,-11.382c-7.677,-2.646 -15.752,-3.966 -24.222,-3.966c-11.113,-0 -20.955,1.894 -29.509,5.687c-8.563,3.795 -15.662,9.091 -21.308,15.878c-5.65,6.796 -9.883,14.738 -12.704,23.82c-2.825,9.092 -4.059,18.926 -3.704,29.514l35.996,-0c-0,-4.938 0.482,-9.925 1.454,-14.954c0.968,-5.03 2.604,-9.571 4.895,-13.63c2.292,-4.058 5.296,-7.411 9.001,-10.057c3.703,-2.647 8.379,-3.971 14.028,-3.971c8.114,-0 14.774,2.561 19.982,7.675c5.202,5.121 7.809,12.087 7.809,20.908c0,5.65 -1.282,10.679 -3.838,15.088c-2.56,4.411 -5.735,8.382 -9.529,11.913c-0.257,0.237 -0.543,0.444 -0.803,0.679l0,37.965c1.514,-0.999 2.974,-2.075 4.509,-3.05c4.85,-3.081 9.571,-6.218 14.157,-9.396c4.588,-3.174 8.867,-6.617 12.839,-10.319c3.971,-3.705 7.454,-7.764 10.454,-12.176c2.999,-4.408 5.382,-9.397 7.146,-14.955m-127.703,84.297c-3.089,7.941 -4.631,17.296 -4.631,28.058l55.391,0l0,-32.292l-6.958,0c2.105,-2.989 4.471,-5.719 6.958,-8.328l0,-40.052c-6.787,4.72 -13.337,9.388 -19.53,13.973c-7.145,5.295 -13.365,11.073 -18.662,17.336c-5.291,6.269 -9.482,13.366 -12.568,21.305" style="fill:#095fa8;fill-rule:nonzero;"/><path d="M142.279,144.709l-27.839,-0l0,22.936l27.839,-0l-0,-22.936Zm-27.834,139.97l27.838,0l0,-101.351l-27.838,0l0,101.351" style="fill:#b9d6ed;fill-rule:nonzero;"/></svg>